<svg width="32" height="32" viewBox="0 0 32 32" fill="none" xmlns="http://www.w3.org/2000/svg">
<g id="icon">
<path id="Vector" d="M7.66663 10.019H4.54163C4.25397 10.019 4.02081 10.2522 4.02081 10.5399C4.02081 10.8275 4.25397 11.0607 4.54163 11.0607H7.66663C7.95429 11.0607 8.18744 10.8275 8.18744 10.5399C8.18744 10.2522 7.95429 10.019 7.66663 10.019ZM7.66663 12.1024H4.54163C4.25397 12.1024 4.02081 12.3356 4.02081 12.6232C4.02081 12.9109 4.25397 13.144 4.54163 13.144H7.66663C7.80475 13.144 7.93723 13.0892 8.0349 12.9915C8.13257 12.8938 8.18744 12.7614 8.18744 12.6232C8.18744 12.4851 8.13257 12.3526 8.0349 12.255C7.93723 12.1573 7.80475 12.1024 7.66663 12.1024ZM6.10413 15.2274C4.95355 15.2274 4.02081 16.1602 4.02081 17.3107C4.02081 18.4613 4.95355 19.394 6.10413 19.394C7.25415 19.3927 8.18616 18.4608 8.18744 17.3107C8.18744 16.1602 7.2547 15.2274 6.10413 15.2274ZM6.10413 18.3524C5.52905 18.3519 5.06305 17.8858 5.06244 17.3107C5.06244 16.7354 5.52881 16.269 6.10413 16.269C6.67944 16.269 7.14581 16.7354 7.14581 17.3107C7.14575 17.886 6.67938 18.3524 6.10413 18.3524ZM6.62494 5.33154H2.97913C2.841 5.33154 2.70853 5.38641 2.61086 5.48409C2.51318 5.58176 2.45831 5.71423 2.45831 5.85236C2.45831 5.99048 2.51318 6.12295 2.61086 6.22063C2.70853 6.3183 2.841 6.37317 2.97913 6.37317H6.62494C6.76307 6.37317 6.89554 6.3183 6.99321 6.22063C7.09088 6.12295 7.14575 5.99048 7.14575 5.85236C7.14575 5.71423 7.09088 5.58176 6.99321 5.48409C6.89554 5.38641 6.76307 5.33154 6.62494 5.33154Z" fill="white"/>
<path id="Vector_2" d="M30.0624 22.5189C30.925 22.5179 31.624 21.8189 31.6249 20.9564V4.28973C31.624 3.42719 30.925 2.72815 30.0624 2.72723H22.7708V1.68555C22.7698 0.822998 22.0708 0.123962 21.2083 0.123047H10.7916C9.92908 0.123962 9.23004 0.822998 9.22913 1.68555V2.72723H1.93744C1.07489 2.72815 0.375854 3.42719 0.374939 4.28973V20.9564C0.375854 21.819 1.07489 22.518 1.93744 22.5189H5.58325V28.248H4.54163C3.96655 28.2486 3.50055 28.7147 3.49994 29.2897H0.895752C0.608093 29.2897 0.374939 29.5229 0.374939 29.8105C0.374939 30.0982 0.608093 30.3314 0.895752 30.3314H3.49994C3.50049 30.9064 3.96655 31.3724 4.54163 31.373H7.66663C8.2417 31.3725 8.7077 30.9064 8.70831 30.3314H13.3958C13.3964 30.9064 13.8624 31.3724 14.4375 31.373H17.5625C18.1376 31.3725 18.6036 30.9064 18.6042 30.3314H23.2917C23.2922 30.9064 23.7583 31.3724 24.3334 31.373H27.4584C28.0334 31.3725 28.4995 30.9064 28.5001 30.3314H31.1042C31.3919 30.3314 31.6251 30.0982 31.6251 29.8105C31.6251 29.5229 31.3919 29.2897 31.1042 29.2897H28.4999C28.4994 28.7147 28.0333 28.2487 27.4583 28.248H26.4166V22.5189H30.0624ZM22.7708 6.37305H26.4166C26.5547 6.37305 26.6872 6.31818 26.7848 6.2205C26.8825 6.12283 26.9374 5.99036 26.9374 5.85223C26.9374 5.71411 26.8825 5.58163 26.7848 5.48396C26.6872 5.38629 26.5547 5.33142 26.4166 5.33142H22.7708V3.76892H30.0624C30.2005 3.7691 30.3329 3.82403 30.4305 3.92166C30.5281 4.01929 30.5831 4.15166 30.5833 4.28973V7.93555H22.7708V6.37305ZM10.2708 1.68555C10.2709 1.54747 10.3259 1.41511 10.4235 1.31747C10.5211 1.21984 10.6535 1.16491 10.7916 1.16473H21.2083C21.3463 1.16491 21.4787 1.21984 21.5763 1.31747C21.674 1.41511 21.7289 1.54747 21.7291 1.68555V6.37305H10.2708V1.68555ZM10.2708 7.41473H21.7291V23.5605C21.7289 23.6986 21.674 23.831 21.5763 23.9286C21.4787 24.0263 21.3463 24.0812 21.2083 24.0814H10.7916C10.6536 24.0812 10.5212 24.0263 10.4236 23.9286C10.3259 23.831 10.271 23.6986 10.2708 23.5605V7.41473H10.2708ZM1.41663 4.28973C1.4168 4.15166 1.47173 4.01929 1.56936 3.92166C1.667 3.82403 1.79937 3.7691 1.93744 3.76892H9.22913V5.33142H8.70831C8.57018 5.33142 8.43771 5.38629 8.34004 5.48396C8.24237 5.58163 8.1875 5.71411 8.1875 5.85223C8.1875 5.99036 8.24237 6.12283 8.34004 6.2205C8.43771 6.31818 8.57018 6.37305 8.70831 6.37305H9.22913V7.93555H1.41663V4.28973ZM1.93744 21.4772C1.79937 21.4771 1.667 21.4221 1.56936 21.3245C1.47173 21.2269 1.4168 21.0945 1.41663 20.9564V8.97723H9.22913V21.4772H1.93744ZM4.54163 30.3314V29.2897H7.66663L7.66699 29.8087L7.66663 29.8105L7.66699 29.8124L7.66736 30.3314H4.54163ZM13.3958 29.2897H8.70825C8.7077 28.7147 8.24164 28.2487 7.66657 28.248H6.62494V22.5189H9.22913V23.5605C9.23004 24.4231 9.92908 25.1221 10.7916 25.123H15.4791V28.248H14.4374C13.8624 28.2486 13.3964 28.7147 13.3958 29.2897ZM14.4374 30.3314V29.2897H17.5624L17.5628 29.8087L17.5624 29.8105L17.5628 29.8124L17.5632 30.3314H14.4374ZM23.2916 29.2897H18.6041C18.6036 28.7147 18.1375 28.2487 17.5624 28.248H16.5208V25.123H21.2083C22.0708 25.1221 22.7698 24.4231 22.7708 23.5605V22.5189H25.3749V28.248H24.3333C23.7582 28.2486 23.2922 28.7147 23.2916 29.2897ZM27.4583 29.2897L27.4586 29.8087L27.4583 29.8106L27.4586 29.8125L27.459 30.3314H24.3332V29.2897H27.4583ZM22.7708 21.4772V8.97723H30.5833V20.9564C30.5831 21.0945 30.5281 21.2269 30.4305 21.3245C30.3329 21.4221 30.2005 21.4771 30.0624 21.4772H22.7708Z" fill="white"/>
<path id="Vector_3" d="M27.4583 10.0189H24.3333C24.1951 10.0189 24.0627 10.0737 23.965 10.1714C23.8673 10.2691 23.8124 10.4015 23.8124 10.5397C23.8124 10.6778 23.8673 10.8103 23.965 10.9079C24.0627 11.0056 24.1951 11.0605 24.3333 11.0605H27.4583C27.7459 11.0605 27.9791 10.8273 27.9791 10.5397C27.9791 10.252 27.7459 10.0189 27.4583 10.0189ZM27.4583 12.1022H24.3333C24.1951 12.1022 24.0627 12.1571 23.965 12.2548C23.8673 12.3524 23.8124 12.4849 23.8124 12.623C23.8124 12.7612 23.8673 12.8936 23.965 12.9913C24.0627 13.089 24.1951 13.1439 24.3333 13.1439H27.4583C27.5964 13.1439 27.7289 13.089 27.8265 12.9913C27.9242 12.8936 27.9791 12.7612 27.9791 12.623C27.9791 12.4849 27.9242 12.3524 27.8265 12.2548C27.7289 12.1571 27.5964 12.1022 27.4583 12.1022ZM25.8958 15.2272C24.7452 15.2272 23.8124 16.16 23.8124 17.3105C23.8124 18.4611 24.7452 19.3939 25.8958 19.3939C27.0463 19.3939 27.9791 18.4611 27.9791 17.3105C27.9778 16.1605 27.0458 15.2285 25.8958 15.2272ZM25.8958 18.3522C25.3204 18.3522 24.8541 17.8859 24.8541 17.3105C24.8541 16.7352 25.3204 16.2689 25.8958 16.2689C26.4711 16.2689 26.9374 16.7352 26.9374 17.3105C26.9369 17.8856 26.4708 18.3516 25.8958 18.3522ZM15.9999 17.8314C14.8494 17.8314 13.9166 18.7641 13.9166 19.9147C13.9166 21.0652 14.8494 21.998 15.9999 21.998C17.1505 21.998 18.0833 21.0652 18.0833 19.9147C18.082 18.7646 17.15 17.8327 15.9999 17.8314ZM15.9999 20.9564C15.4246 20.9564 14.9583 20.49 14.9583 19.9147C14.9583 19.3394 15.4246 18.873 15.9999 18.873C16.5753 18.873 17.0416 19.3394 17.0416 19.9147C17.041 20.4897 16.575 20.9558 15.9999 20.9564ZM29.0208 5.33136H28.4999C28.3618 5.33136 28.2293 5.38623 28.1317 5.4839C28.034 5.58157 27.9791 5.71404 27.9791 5.85217C27.9791 5.9903 28.034 6.12277 28.1317 6.22044C28.2293 6.31811 28.3618 6.37299 28.4999 6.37299H29.0208C29.1589 6.37299 29.2913 6.31811 29.389 6.22044C29.4867 6.12277 29.5416 5.9903 29.5416 5.85217C29.5416 5.71404 29.4867 5.58157 29.389 5.4839C29.2913 5.38623 29.1589 5.33136 29.0208 5.33136ZM17.5624 3.24805H11.8333C11.5456 3.24805 11.3124 3.4812 11.3124 3.76886C11.3124 4.05652 11.5456 4.28967 11.8333 4.28967H17.5624C17.8501 4.28967 18.0833 4.05652 18.0833 3.76886C18.0833 3.4812 17.8501 3.24805 17.5624 3.24805ZM20.1666 3.24805H19.6458C19.3582 3.24805 19.125 3.4812 19.125 3.76886C19.125 4.05652 19.3582 4.28967 19.6458 4.28967H20.1666C20.3048 4.28967 20.4372 4.2348 20.5349 4.13713C20.6326 4.03946 20.6874 3.90699 20.6874 3.76886C20.6874 3.63073 20.6326 3.49826 20.5349 3.40059C20.4372 3.30292 20.3048 3.24805 20.1666 3.24805ZM13.3958 9.49805H18.6041C18.7422 9.49805 18.8747 9.44318 18.9723 9.3455C19.07 9.24783 19.1249 9.11536 19.1249 8.97723C19.1249 8.83911 19.07 8.70664 18.9723 8.60896C18.8747 8.51129 18.7422 8.45642 18.6041 8.45642H13.3958C13.2576 8.45642 13.1252 8.51129 13.0275 8.60896C12.9298 8.70664 12.8749 8.83911 12.8749 8.97723C12.8749 9.11536 12.9298 9.24783 13.0275 9.3455C13.1252 9.44318 13.2576 9.49805 13.3958 9.49805ZM13.3958 11.5814H18.6041C18.8917 11.5814 19.1249 11.3482 19.1249 11.0605C19.1249 10.7729 18.8917 10.5397 18.6041 10.5397H13.3958C13.2576 10.5397 13.1252 10.5946 13.0275 10.6923C12.9298 10.7899 12.8749 10.9224 12.8749 11.0605C12.8749 11.1987 12.9298 11.3311 13.0275 11.4288C13.1252 11.5265 13.2576 11.5814 13.3958 11.5814ZM13.3958 13.6647H18.6041C18.7422 13.6647 18.8747 13.6099 18.9723 13.5122C19.07 13.4145 19.1249 13.2821 19.1249 13.1439C19.1249 13.0058 19.07 12.8733 18.9723 12.7757C18.8747 12.678 18.7422 12.6231 18.6041 12.6231H13.3958C13.2576 12.6231 13.1252 12.678 13.0275 12.7757C12.9298 12.8733 12.8749 13.0058 12.8749 13.1439C12.8749 13.2821 12.9298 13.4145 13.0275 13.5122C13.1252 13.6099 13.2576 13.6647 13.3958 13.6647Z" fill="white"/>
</g>
</svg>
