<svg width="32" height="32" viewBox="0 0 32 32" fill="none" xmlns="http://www.w3.org/2000/svg">
<g id="icon">
<path id="Vector" d="M21.7228 17.243L21.0315 16.5518L16.987 20.5959C16.6961 20.4238 16.3613 20.3187 16 20.3187C14.9216 20.3187 14.0447 21.1957 14.0447 22.274C14.0447 23.3524 14.9216 24.2293 16 24.2293C17.0784 24.2293 17.9553 23.3524 17.9553 22.274C17.9553 21.9123 17.8497 21.5779 17.6782 21.2871L21.7228 17.243ZM16 23.2517C15.4608 23.2517 15.0223 22.8132 15.0223 22.274C15.0223 21.7348 15.4608 21.2964 16 21.2964C16.5392 21.2964 16.9777 21.7348 16.9777 22.274C16.9777 22.8132 16.5392 23.2517 16 23.2517ZM11.1117 26.1847H20.8883V27.1623H11.1117V26.1847ZM13.067 28.14H18.933V29.1177H13.067V28.14Z" fill="white"/>
<path id="Vector_2" d="M16 10.0533C9.26145 10.0533 3.77921 15.5356 3.77921 22.2741C3.77921 25.5458 5.05603 28.6201 7.37407 30.9303L7.5173 31.0731H24.4822L24.6254 30.9303C26.9439 28.6201 28.2208 25.5458 28.2208 22.2741C28.2208 15.5356 22.7385 10.0533 16 10.0533ZM24.076 30.0954H7.92401C5.8802 27.9871 4.75687 25.2173 4.75687 22.2741C4.75687 16.0742 9.80063 11.031 16 11.031C22.1993 11.031 27.2431 16.0742 27.2431 22.2741C27.2431 25.2173 26.1198 27.9871 24.076 30.0954ZM16 0.42334L11.1293 7.12033H13.5558V9.07565H14.5335V6.14266H13.0494L16 2.08537L18.9506 6.14266H17.4665V9.07565H18.4441V7.12033H20.8707L16 0.42334Z" fill="white"/>
<path id="Vector_3" d="M26.7543 2.37891L21.8836 9.07589H24.3101V10.5424H25.2878V8.09823H23.8037L26.7543 4.04093L29.7049 8.09823H28.2208V15.9195H29.1984V9.07589H31.625L26.7543 2.37891ZM5.24571 2.37891L0.375 9.07589H2.80156V15.9195H3.77922V8.09823H2.29513L5.24571 4.04093L8.1963 8.09823H6.71221V10.5424H7.68987V9.07589H10.1164L5.24571 2.37891ZM2.80156 16.8972H3.77922V17.8749H2.80156V16.8972Z" fill="white"/>
<path id="Vector_4" d="M6.71222 11.5195H7.68988V12.4972H6.71222V11.5195ZM24.3101 11.5195H25.2878V12.4972H24.3101V11.5195ZM28.2208 16.8967H29.1985V17.8743H28.2208V16.8967ZM19.9107 28.1398H20.8883V29.1175H19.9107V28.1398ZM11.1117 28.1398H12.0894V29.1175H11.1117V28.1398Z" fill="white"/>
<path id="Vector_5" d="M16 12.0083C10.3393 12.0083 5.73456 16.6136 5.73456 22.2738C5.73456 24.5067 6.44923 26.6376 7.80183 28.434L8.58298 27.8459C7.35894 26.2201 6.71222 24.2936 6.71222 22.2738C6.71222 17.1523 10.8785 12.986 16 12.986C21.1215 12.986 25.2878 17.1523 25.2878 22.2738C25.2878 24.2936 24.6411 26.2201 23.4175 27.8455L24.1987 28.4335C25.5508 26.6376 26.2655 24.5067 26.2655 22.2738C26.2655 16.6136 21.6607 12.0083 16 12.0083Z" fill="white"/>
</g>
</svg>
