<svg width="32" height="32" viewBox="0 0 32 32" fill="none" xmlns="http://www.w3.org/2000/svg">
<g id="icon">
<path id="Vector" d="M30.0407 0.123047H27.9791C27.9107 0.123055 27.843 0.136536 27.7798 0.162721C27.7166 0.188905 27.6592 0.22728 27.6109 0.275654C27.5625 0.324028 27.5241 0.381454 27.498 0.444652C27.4718 0.50785 27.4584 0.575583 27.4584 0.643982C27.4584 0.931519 27.6915 1.16467 27.9791 1.16467H30.0407C30.3401 1.16492 30.5831 1.4079 30.5833 1.70734V3.76892C30.5833 4.05646 30.8165 4.28967 31.1041 4.28967C31.1725 4.28969 31.2402 4.27623 31.3034 4.25007C31.3666 4.22391 31.424 4.18555 31.4724 4.13719C31.5208 4.08884 31.5591 4.03143 31.5853 3.96824C31.6115 3.90505 31.625 3.83732 31.625 3.76892V1.70734C31.624 0.832825 30.9152 0.124023 30.0407 0.123047ZM31.1041 27.2064C30.966 27.2064 30.8335 27.2613 30.7359 27.359C30.6382 27.4566 30.5834 27.5891 30.5834 27.7272V29.7888C30.5831 30.0882 30.3401 30.3312 30.0407 30.3314H27.9791C27.841 30.3314 27.7086 30.3862 27.6109 30.4839C27.5132 30.5815 27.4584 30.714 27.4584 30.8521C27.4584 30.9205 27.4718 30.9882 27.498 31.0514C27.5241 31.1146 27.5625 31.1721 27.6109 31.2204C27.6592 31.2688 27.7166 31.3072 27.7798 31.3334C27.843 31.3596 27.9107 31.373 27.9791 31.373H30.0407C30.9152 31.3721 31.624 30.6633 31.625 29.7888V27.7272C31.625 27.4396 31.3918 27.2064 31.1041 27.2064ZM0.895935 4.28967C1.18347 4.28967 1.41663 4.05652 1.41663 3.76892V1.70734C1.41687 1.4079 1.65985 1.16492 1.95929 1.16473H4.02087C4.30841 1.16473 4.54163 0.93158 4.54163 0.643982C4.54164 0.575583 4.52818 0.50785 4.50202 0.444652C4.47586 0.381454 4.4375 0.324028 4.38915 0.275654C4.34079 0.22728 4.28338 0.188905 4.22019 0.162721C4.157 0.136536 4.08927 0.123055 4.02087 0.123047L1.95929 0.123047C1.08478 0.124023 0.375977 0.832825 0.375 1.70734V3.76892C0.375 4.05646 0.608154 4.28967 0.895935 4.28967ZM1.95929 31.373H4.02087C4.30841 31.373 4.54163 31.1399 4.54163 30.8521C4.54163 30.5646 4.30847 30.3314 4.02087 30.3314H1.95929C1.65985 30.3312 1.41687 30.0882 1.41669 29.7888V27.8314C1.41669 27.5438 1.18353 27.3106 0.895935 27.3106C0.827536 27.3106 0.759803 27.324 0.696605 27.3502C0.633407 27.3764 0.575981 27.4147 0.527607 27.4631C0.479233 27.5114 0.440858 27.5689 0.414674 27.632C0.388489 27.6952 0.375008 27.763 0.375 27.8314V29.7888C0.375977 30.6633 1.08478 31.3721 1.95929 31.373ZM7.67084 26.0084C7.77264 26.0084 7.87225 25.9786 7.95721 25.9225C8.19528 25.7654 8.42841 25.6009 8.65625 25.4293C8.88333 25.2583 9.10546 25.0808 9.32239 24.8971C9.53879 24.7124 9.74966 24.5214 9.95471 24.3242C10.1592 24.1274 10.358 23.9249 10.551 23.7167C10.7437 23.5082 10.9299 23.2936 11.1093 23.0734C11.2886 22.8539 11.4631 22.6279 11.6302 22.3965C11.7974 22.1653 11.9562 21.9276 12.1088 21.6882C12.2614 21.4486 12.4072 21.2007 12.5449 20.9501C12.6825 20.6995 12.8135 20.444 12.937 20.1829C13.0615 19.919 13.1779 19.6514 13.2858 19.3804L13.3609 19.1808C13.4544 18.9135 13.3168 18.6205 13.0515 18.5214C12.7861 18.4222 12.4902 18.553 12.3853 18.8163L12.3145 19.0053C12.2151 19.2537 12.1061 19.4991 11.9958 19.7387C11.8853 19.9783 11.7604 20.2162 11.6312 20.4492C11.502 20.6819 11.3708 20.9091 11.228 21.132C11.0861 21.3547 10.9382 21.5735 10.7843 21.7881C10.6308 22.0018 10.4718 22.2111 10.3021 22.413C10.1323 22.6152 9.96301 22.8157 9.78448 23.0091C9.60559 23.2017 9.4216 23.3896 9.23273 23.5724C9.04578 23.7543 8.84698 23.9313 8.64648 24.1022C8.44569 24.273 8.23983 24.4376 8.02917 24.596C7.81866 24.7543 7.60315 24.9085 7.38239 25.0516C7.30125 25.0518 7.22129 25.0709 7.14885 25.1075C7.07642 25.144 7.01353 25.197 6.96519 25.2621C6.91685 25.3273 6.8844 25.4028 6.87043 25.4828C6.85646 25.5627 6.86135 25.6448 6.88472 25.7225C6.90809 25.8001 6.94928 25.8713 7.00502 25.9303C7.06076 25.9892 7.1295 26.0343 7.20576 26.062C7.28202 26.0897 7.3637 26.0992 7.44427 26.0897C7.52485 26.0802 7.6021 26.0521 7.66986 26.0074L7.67084 26.0084ZM20.4542 13.4511C20.4303 13.3336 20.4022 13.2172 20.3644 13.1011C20.3284 12.9876 20.2875 12.8757 20.2418 12.7657C20.1959 12.6575 20.1448 12.5517 20.0886 12.4485C20.0327 12.3452 19.9717 12.2447 19.9058 12.1475C19.8402 12.0502 19.7699 11.9564 19.6974 11.8668C19.6249 11.7772 19.5443 11.6902 19.4614 11.6065C19.379 11.5232 19.2921 11.4446 19.201 11.3709C19.1099 11.2971 19.0176 11.2267 18.9204 11.1625C18.8229 11.0986 18.7234 11.0362 18.6202 10.9799C18.5173 10.9235 18.4114 10.8725 18.3031 10.8273C18.1926 10.7802 18.0798 10.7389 17.965 10.7034C17.8506 10.6676 17.7343 10.6378 17.6167 10.6142C17.4962 10.5894 17.3746 10.5708 17.2522 10.5584C17.0048 10.5341 16.7557 10.5341 16.5083 10.5584C16.3871 10.5708 16.2667 10.5892 16.1473 10.6137C16.0286 10.6375 15.9108 10.6683 15.7964 10.7034C15.6828 10.7383 15.5712 10.7793 15.4619 10.8261C15.3541 10.8719 15.2458 10.9236 15.1417 10.9799C15.0376 11.0362 14.9381 11.0975 14.8432 11.1616C14.7467 11.2272 14.6529 11.2968 14.5621 11.37C14.4713 11.444 14.3843 11.5225 14.3015 11.6053C14.2189 11.6881 14.1405 11.775 14.0667 11.8657C13.9186 12.0474 13.7877 12.2424 13.6754 12.4481C13.6187 12.5527 13.5676 12.6565 13.5236 12.7647C13.4767 12.8745 13.4355 12.9866 13.4 13.1006C13.3641 13.2157 13.3342 13.3325 13.3104 13.4506C13.2856 13.5711 13.2668 13.6928 13.2542 13.8152C13.2417 13.9388 13.2356 14.0629 13.236 14.1871C13.236 14.4716 13.2272 14.7534 13.2093 15.0323C13.1918 15.3101 13.1649 15.5872 13.1287 15.8632C13.0937 16.1376 13.0505 16.4252 12.9979 16.6939C12.9716 16.8294 13.0002 16.9698 13.0773 17.0842C13.1545 17.1987 13.2739 17.2778 13.4094 17.3043C13.4427 17.3097 13.4766 17.3118 13.5104 17.3107C13.6312 17.3104 13.7481 17.2682 13.8412 17.1913C13.9343 17.1144 13.9978 17.0076 14.0209 16.8891C14.0776 16.5992 14.1251 16.2888 14.163 15.9924C14.2012 15.6943 14.2301 15.395 14.2495 15.095C14.2693 14.7922 14.2782 14.4897 14.2782 14.1835C14.2774 14.0064 14.295 13.8295 14.3301 13.6559C14.3468 13.5725 14.368 13.49 14.3938 13.4089C14.4191 13.3271 14.4486 13.247 14.4822 13.1683C14.5144 13.0916 14.5504 13.0165 14.59 12.9433C14.6305 12.8692 14.6745 12.7971 14.7218 12.7272C14.7683 12.6579 14.8184 12.591 14.8718 12.5268C14.9244 12.4623 14.9803 12.4006 15.0392 12.3417C15.0983 12.2824 15.1605 12.2263 15.2256 12.1736C15.3552 12.067 15.4946 11.9732 15.6422 11.8933C15.8668 11.7712 16.1082 11.6832 16.3588 11.6329C16.4448 11.6149 16.5317 11.6015 16.6192 11.5929C16.7963 11.5752 16.9749 11.5752 17.152 11.5929C17.2396 11.6017 17.3263 11.6151 17.4124 11.6329C17.4968 11.6501 17.5803 11.672 17.6603 11.6966C17.7418 11.7218 17.822 11.7511 17.9005 11.7845C18.1323 11.8833 18.3487 12.0149 18.5432 12.1751C18.607 12.228 18.6683 12.2838 18.7271 12.3422C18.7864 12.4012 18.8427 12.4631 18.8958 12.5278C18.9495 12.5928 19 12.6584 19.0463 12.7292C19.0928 12.8002 19.1359 12.869 19.1765 12.9438C19.2172 13.0189 19.2525 13.0933 19.2863 13.1714C19.3201 13.2496 19.3483 13.3276 19.3729 13.4075C19.3975 13.4871 19.4199 13.5737 19.4366 13.6547L19.4542 13.7491C19.477 13.8854 19.553 14.007 19.6654 14.0872C19.7779 14.1674 19.9176 14.1997 20.0538 14.1769C20.1213 14.1656 20.1859 14.1412 20.244 14.105C20.302 14.0687 20.3523 14.0214 20.3921 13.9658C20.4318 13.9101 20.4602 13.8471 20.4756 13.7804C20.491 13.7138 20.4931 13.6447 20.4818 13.5773L20.4542 13.4511ZM17.1072 23.4611C17.04 23.5815 17.0233 23.7237 17.0607 23.8564C17.0982 23.9891 17.1868 24.1015 17.307 24.169C17.4273 24.2366 17.5694 24.2537 17.7023 24.2165C17.8352 24.1794 17.9478 24.091 18.0156 23.9709C18.1813 23.6762 18.2662 23.5095 18.4166 23.207C18.5673 22.9042 18.7089 22.5985 18.8453 22.2881C18.9813 21.9774 19.1088 21.663 19.2277 21.3454C19.3479 21.0265 19.4602 20.7047 19.5646 20.3803C19.7746 19.7251 19.9507 19.0595 20.0922 18.3862C20.1637 18.0459 20.2268 17.7039 20.2813 17.3605C20.3356 17.0145 20.3809 16.6672 20.4172 16.3188C20.436 16.1438 20.4515 15.9683 20.4656 15.7924C20.4711 15.7242 20.4631 15.6556 20.4421 15.5905C20.4211 15.5254 20.3874 15.465 20.3431 15.4129C20.2987 15.3608 20.2445 15.318 20.1836 15.2868C20.1227 15.2557 20.0562 15.2368 19.988 15.2314C19.7012 15.2083 19.4501 15.4221 19.427 15.7089C19.3886 16.208 19.3301 16.7052 19.2515 17.1995C19.2 17.5247 19.1404 17.8486 19.073 18.1708C19.0062 18.4912 18.9306 18.8096 18.8463 19.1257C18.7625 19.4404 18.6712 19.753 18.5723 20.0632C18.4737 20.3715 18.3673 20.6771 18.2531 20.9799C18.1398 21.2808 18.0182 21.5784 17.8885 21.8726C17.76 22.1666 17.6244 22.4575 17.4818 22.7449C17.3423 23.0281 17.2624 23.1846 17.1072 23.4611ZM13.9114 28.986C14.0459 28.9862 14.1753 28.9343 14.2724 28.8413C14.513 28.61 14.7479 28.3733 14.9772 28.1308C15.2063 27.8884 15.4295 27.6405 15.6464 27.3871C15.8643 27.1334 16.0756 26.8741 16.2802 26.6094C16.4852 26.3445 16.6836 26.0754 16.8755 25.8022C16.9147 25.7461 16.9424 25.6828 16.9571 25.6159C16.9718 25.5491 16.9732 25.48 16.9612 25.4127C16.9492 25.3453 16.924 25.2809 16.8872 25.2233C16.8503 25.1656 16.8024 25.1158 16.7463 25.0767C16.5104 24.9119 16.1855 24.9698 16.0208 25.2059C15.8393 25.4661 15.6511 25.7215 15.4562 25.9719C15.0671 26.4725 14.6541 26.9542 14.2188 27.4152C14.0014 27.6454 13.7791 27.8709 13.5522 28.0917C13.4773 28.1636 13.4256 28.2563 13.4038 28.3579C13.382 28.4594 13.3911 28.5652 13.4299 28.6615C13.4686 28.7579 13.5352 28.8405 13.6212 28.8987C13.7071 28.9569 13.8086 28.988 13.9124 28.9882L13.9114 28.986ZM11.5728 28.2891C11.6949 28.2891 11.8131 28.2462 11.9068 28.1677C12.1561 27.9595 12.3993 27.7439 12.6359 27.5214C12.8751 27.2992 13.0193 27.1604 13.2427 26.9294C13.7 26.4585 14.1304 25.9622 14.5318 25.4429L14.6234 25.3256C14.8098 25.0872 15.0313 24.8049 15.1896 24.575C15.3762 24.307 15.5552 24.0338 15.7266 23.7558C15.8986 23.4767 16.0637 23.1934 16.222 22.9063C16.3784 22.6188 16.5278 22.3265 16.6702 22.0292C16.8127 21.732 16.9465 21.4306 17.0715 21.1255C17.1985 20.8196 17.3165 20.5099 17.425 20.197L17.4603 20.0928C17.4923 20.0061 17.5006 19.9124 17.4844 19.8214C17.4681 19.7304 17.428 19.6454 17.3681 19.575C17.3082 19.5047 17.2306 19.4515 17.1434 19.421C17.0561 19.3905 16.9623 19.3838 16.8716 19.4016C16.7809 19.4193 16.6965 19.4609 16.6272 19.5221C16.5578 19.5833 16.506 19.6619 16.4771 19.7497L16.4415 19.85C16.3377 20.1447 16.2268 20.4369 16.1089 20.7263C15.9914 21.0144 15.8665 21.2996 15.7344 21.5814C15.6006 21.8613 15.4597 22.137 15.3114 22.4085C15.1631 22.6801 15.0077 22.9468 14.8453 23.2089C14.6841 23.4709 14.5154 23.7283 14.3397 23.9809C14.1901 24.195 13.9813 24.4615 13.8068 24.6857L13.711 24.808C13.3339 25.2948 12.9301 25.7605 12.5015 26.2027C12.2891 26.4225 12.1536 26.5518 11.9288 26.7606C11.7039 26.9696 11.4738 27.1728 11.2385 27.37C11.1565 27.4387 11.0976 27.531 11.0698 27.6343C11.0421 27.7376 11.0468 27.847 11.0834 27.9476C11.12 28.0481 11.1867 28.1349 11.2744 28.1963C11.362 28.2576 11.4665 28.2904 11.5735 28.2903L11.5728 28.2891Z" fill="white"/>
<path id="Vector_2" d="M17.2927 16.1437C17.2564 16.4634 17.2112 16.782 17.1572 17.0991C17.1209 17.3081 17.081 17.5164 17.0376 17.724C17.0096 17.8592 17.0364 18 17.1122 18.1155C17.188 18.2309 17.3065 18.3115 17.4417 18.3396C17.4758 18.347 17.5109 18.3506 17.5459 18.3506C17.6658 18.3503 17.7819 18.3087 17.8747 18.2328C17.9675 18.1569 18.0312 18.0513 18.0552 17.9338C18.1007 17.7137 18.1426 17.4929 18.1808 17.2715C18.2385 16.9349 18.2866 16.5966 18.3251 16.2573C18.3643 15.915 18.3934 15.5717 18.4125 15.2278C18.4319 14.8823 18.4421 14.5328 18.4421 14.1818C18.4421 14.1298 18.439 14.0776 18.4345 14.0225C18.4298 13.9719 18.422 13.9216 18.4113 13.8719C18.4012 13.8191 18.388 13.7669 18.3718 13.7157C18.3566 13.6673 18.3393 13.6197 18.3198 13.5729C18.2803 13.4794 18.2318 13.39 18.1751 13.3058C18.1472 13.265 18.1174 13.2254 18.0859 13.1871C18.0547 13.1493 18.0217 13.1129 17.987 13.0782C17.9516 13.0414 17.9142 13.0066 17.8749 12.974C17.836 12.9416 17.7955 12.9112 17.7535 12.8829C17.712 12.8548 17.6692 12.8288 17.6255 12.8047C17.5813 12.7813 17.5361 12.7596 17.4901 12.7396C17.443 12.7194 17.3946 12.702 17.3454 12.6876C17.2958 12.6719 17.2453 12.659 17.1942 12.649C17.1428 12.6383 17.0905 12.6302 17.0381 12.6252C16.9321 12.6149 16.8253 12.6149 16.7193 12.6252C16.6159 12.6352 16.5138 12.6559 16.4146 12.687C16.365 12.7026 16.3166 12.7203 16.2725 12.7391C16.2281 12.758 16.1791 12.7814 16.1345 12.8052C16.0897 12.8293 16.0448 12.8574 16.0088 12.882C15.9661 12.91 15.9249 12.9406 15.8853 12.9735C15.8483 13.004 15.8127 13.0364 15.7787 13.0703C15.7406 13.1078 15.7046 13.1472 15.6707 13.1885C15.609 13.2644 15.5543 13.3456 15.5071 13.4313C15.4826 13.4763 15.4604 13.5225 15.4406 13.5698C15.4002 13.6668 15.3692 13.7675 15.3483 13.8705C15.3386 13.9224 15.3307 13.9698 15.3255 14.0204C15.3201 14.0733 15.3175 14.1265 15.3176 14.1797C15.3169 14.2486 15.3298 14.3169 15.3556 14.3807C15.3815 14.4446 15.4197 14.5027 15.4682 14.5516C15.5166 14.6006 15.5743 14.6395 15.6378 14.666C15.7014 14.6925 15.7696 14.7062 15.8385 14.7062C15.9073 14.7062 15.9755 14.6925 16.0391 14.666C16.1027 14.6395 16.1603 14.6006 16.2088 14.5516C16.2572 14.5027 16.2955 14.4446 16.3213 14.3807C16.3471 14.3169 16.3601 14.2486 16.3593 14.1797C16.3593 14.1623 16.3602 14.1449 16.3619 14.1277L16.4208 13.937C16.4208 13.9343 16.4463 13.8948 16.4475 13.8917L16.5078 13.8177L16.5861 13.7522L16.6766 13.7L16.7729 13.6694C16.7906 13.6656 16.809 13.663 16.8249 13.6611C16.8605 13.6573 16.8442 13.6497 16.9844 13.6688L17.0803 13.6985L17.1709 13.7474L17.4615 13.3156L17.2452 13.8089L17.2812 13.848L17.3333 13.9282L17.3568 13.9766L17.3859 14.0693C17.3859 14.0693 17.3943 14.1215 17.3943 14.1251C17.3962 14.1425 17.3973 14.1597 17.3973 14.1771C17.3973 14.5085 17.3883 14.8375 17.3697 15.1641C17.3514 15.491 17.3256 15.8174 17.2927 16.1437ZM15.1302 16.6981C15.0781 16.9949 14.9531 17.5194 14.884 17.8005C14.8145 18.089 14.7353 18.3749 14.6462 18.6579C14.5578 18.9394 14.4623 19.2187 14.3599 19.4954C14.2566 19.769 14.1458 20.0397 14.0276 20.3073L13.9725 20.4281C13.9341 20.5111 13.9184 20.6028 13.9267 20.6939C13.9351 20.785 13.9673 20.8722 14.0201 20.9469C14.0729 21.0216 14.1445 21.0811 14.2275 21.1193C14.3106 21.1576 14.4023 21.1734 14.4933 21.165C14.5844 21.1566 14.6717 21.1244 14.7463 21.0716C14.821 21.0188 14.8805 20.9473 14.9188 20.8642L14.9786 20.7314C15.1058 20.4447 15.2249 20.1544 15.3355 19.861C15.4459 19.5668 15.5479 19.2682 15.6417 18.9662C15.7357 18.6631 15.8204 18.3572 15.8958 18.049C15.9578 17.7969 16.0923 17.2297 16.1562 16.8855C16.1746 16.7948 16.1684 16.7009 16.1384 16.6134C16.1084 16.5259 16.0556 16.4479 15.9855 16.3876C15.9154 16.3273 15.8305 16.2868 15.7395 16.2702C15.6485 16.2535 15.5548 16.2614 15.4679 16.293C15.3809 16.3246 15.3039 16.3787 15.2448 16.4499C15.1857 16.5211 15.1467 16.6068 15.1317 16.6981H15.1302ZM9.49377 27.2776C9.60536 27.277 9.71379 27.2405 9.80304 27.1735C10.0517 26.9896 10.2949 26.7986 10.5323 26.6006C10.7694 26.4029 11.0011 26.1988 11.2271 25.9885C11.4526 25.7802 11.6713 25.5615 11.8859 25.3381C12.1005 25.1147 12.3026 24.8866 12.5048 24.6527C12.7067 24.4188 12.8989 24.1766 13.0865 23.9298C13.2739 23.6828 13.451 23.4324 13.6256 23.175C13.7066 23.0545 13.7861 22.933 13.864 22.8104C13.9212 22.7333 13.9559 22.6419 13.9643 22.5463C13.9728 22.4507 13.9546 22.3547 13.9119 22.2687C13.8692 22.1828 13.8036 22.1103 13.7223 22.0593C13.641 22.0083 13.5472 21.9808 13.4513 21.9798C13.3554 21.9787 13.261 22.0042 13.1786 22.0534C13.0962 22.1025 13.0291 22.1735 12.9845 22.2585C12.9117 22.3733 12.8371 22.4871 12.7609 22.5997C12.5995 22.8398 12.4315 23.0752 12.2568 23.3058C12.0818 23.5365 11.9005 23.7623 11.713 23.983C11.5257 24.2028 11.332 24.417 11.1322 24.6255C10.9329 24.834 10.7276 25.0368 10.5166 25.2335C10.3051 25.4304 10.0883 25.6215 9.86621 25.8064C9.64419 25.9917 9.41646 26.17 9.18335 26.3412C9.09592 26.4068 9.03133 26.4983 8.99874 26.6026C8.96614 26.707 8.96718 26.8189 9.00171 26.9227C9.03628 27.0264 9.10262 27.1166 9.19133 27.1805C9.28003 27.2443 9.38659 27.2787 9.49591 27.2786L9.49377 27.2776ZM6.10895 24.534C6.20308 24.534 6.29541 24.5082 6.37597 24.4595C6.59383 24.3288 6.80748 24.1912 7.0166 24.0469C7.22595 23.9026 7.42981 23.752 7.62817 23.5953C7.82613 23.439 8.01909 23.2765 8.20678 23.108C8.31924 23.008 8.42949 22.9055 8.53747 22.8007C8.74469 22.6008 8.75085 22.2709 8.55108 22.0637C8.5036 22.0144 8.44687 21.975 8.38413 21.9476C8.32139 21.9202 8.25387 21.9055 8.18544 21.9042C8.117 21.9029 8.04898 21.9152 7.98527 21.9402C7.92157 21.9653 7.86342 22.0026 7.81415 22.0501C7.71509 22.1451 7.61453 22.2385 7.51251 22.3303C7.33994 22.4836 7.16328 22.6322 6.98272 22.7761C6.80108 22.919 6.61512 23.0564 6.42511 23.188C6.23433 23.32 6.0392 23.4456 5.84002 23.5645C5.74219 23.6231 5.66631 23.7122 5.62401 23.8182C5.58172 23.9241 5.57535 24.0409 5.60589 24.1508C5.63634 24.2608 5.70206 24.3576 5.79295 24.4266C5.88385 24.4955 5.99487 24.5326 6.10895 24.5323V24.534ZM11.6739 13.6647C11.5358 13.6647 11.4034 13.7196 11.3057 13.8172C11.2081 13.9148 11.1532 14.0473 11.1532 14.1854C11.1532 14.435 11.1453 14.6818 11.1282 14.9266C11.1111 15.1715 11.0874 15.4137 11.0552 15.6557C11.0236 15.8944 10.9837 16.1319 10.9355 16.3679C10.8876 16.6022 10.8313 16.8366 10.7708 17.0636C10.7104 17.2908 10.6392 17.5187 10.5624 17.7407C10.4859 17.9629 10.4023 18.1826 10.3115 18.3994C10.2212 18.6152 10.1241 18.8281 10.0202 19.0377C9.91676 19.2456 9.80705 19.4503 9.69122 19.6516C9.57501 19.8526 9.4523 20.0498 9.3233 20.2429C9.23214 20.3797 9.13788 20.5145 9.04059 20.647C8.96127 20.7585 8.92902 20.8968 8.95083 21.0319C8.97263 21.167 9.04672 21.2881 9.15709 21.3691C9.26747 21.45 9.40525 21.4842 9.54067 21.4644C9.67609 21.4446 9.79827 21.3722 9.8808 21.2631C9.9861 21.1172 10.0893 20.9697 10.1902 20.8208C10.3306 20.6093 10.4647 20.3943 10.5926 20.1735C10.7204 19.9533 10.8407 19.7289 10.9536 19.5007C11.0673 19.2709 11.1737 19.0376 11.2728 18.8012C11.3722 18.564 11.4636 18.3235 11.5469 18.0802C11.7164 17.5875 11.8533 17.0841 11.9567 16.5734C12.0088 16.3162 12.0525 16.0558 12.0875 15.7924C12.1223 15.5287 12.1495 15.2631 12.1681 14.9953C12.187 14.7275 12.1948 14.4562 12.1948 14.184C12.1944 14.0461 12.1393 13.914 12.0416 13.8167C11.944 13.7194 11.8118 13.6647 11.6739 13.6647ZM12.4619 10.5397C12.3447 10.6813 12.2345 10.8285 12.1317 10.9808C12.0277 11.1334 11.9323 11.2933 11.8453 11.4526C11.7647 11.5972 11.692 11.746 11.6276 11.8985C11.6009 11.9615 11.5869 12.0291 11.5863 12.0975C11.5857 12.1659 11.5986 12.2337 11.6242 12.2971C11.6499 12.3605 11.6878 12.4182 11.7357 12.467C11.7837 12.5158 11.8408 12.5546 11.9037 12.5813C11.9679 12.6089 12.037 12.6231 12.1069 12.623C12.209 12.623 12.3089 12.5928 12.3941 12.5364C12.4793 12.48 12.5459 12.3997 12.5858 12.3057C12.638 12.184 12.6965 12.0652 12.7609 11.9495C12.8327 11.8175 12.9107 11.6889 12.9947 11.5642C13.0791 11.4398 13.1692 11.3194 13.2646 11.2032C13.3602 11.0876 13.4611 10.9765 13.5672 10.8704C13.6732 10.7637 13.7846 10.6625 13.9009 10.5671C14.0178 10.4725 14.1374 10.3814 14.261 10.2975C14.3861 10.2128 14.5154 10.1345 14.6484 10.0627C15.0523 9.84302 15.4866 9.6845 15.937 9.59229C16.0896 9.56104 16.2454 9.53766 16.4027 9.521C16.7217 9.48881 17.0431 9.48881 17.3621 9.521C17.5182 9.53766 17.6744 9.56104 17.8282 9.59229C17.9797 9.62323 18.1295 9.66181 18.2772 9.70789C18.3322 9.72504 18.3875 9.74341 18.4416 9.75989C18.5285 9.79346 18.6227 9.80312 18.7146 9.78785C18.8064 9.77258 18.8925 9.73295 18.9638 9.6731C19.05 9.70079 19.1419 9.70553 19.2305 9.68684C19.3191 9.66815 19.4013 9.62668 19.469 9.56652C19.5367 9.50636 19.5875 9.4296 19.6164 9.3438C19.6454 9.25801 19.6515 9.16615 19.6341 9.07729C19.6166 8.98843 19.5764 8.90565 19.5172 8.83711C19.458 8.76857 19.382 8.71664 19.2967 8.68646C19.2113 8.65627 19.1195 8.64887 19.0304 8.66498C18.9413 8.68109 18.858 8.72015 18.7886 8.77832C18.7217 8.7544 18.6543 8.73197 18.5864 8.71106C18.222 8.59741 17.847 8.52097 17.4672 8.48291C17.0781 8.44385 16.686 8.44385 16.2968 8.48291C16.1061 8.50195 15.9166 8.53082 15.7287 8.56946C15.5434 8.60722 15.3601 8.65448 15.1796 8.71106C14.9996 8.7666 14.8237 8.83075 14.652 8.90369C14.4814 8.97624 14.3142 9.05668 14.1511 9.14478C13.989 9.23316 13.8311 9.32909 13.678 9.43225C13.5261 9.53483 13.3792 9.64472 13.238 9.76154C13.0966 9.87829 12.9608 10.0017 12.8312 10.1313C12.7014 10.2613 12.5781 10.3976 12.4619 10.5397ZM21.4755 16.2115C21.4434 16.5447 21.4047 16.8762 21.3577 17.2047C21.3361 17.3609 21.3251 17.4949 21.3141 17.6255C21.3053 17.7765 21.2879 17.9268 21.2619 18.0757C21.2469 18.1437 21.2457 18.2141 21.2584 18.2826C21.2711 18.3511 21.2974 18.4163 21.3358 18.4745C21.3741 18.5326 21.4237 18.5825 21.4817 18.6211C21.5397 18.6598 21.6048 18.6864 21.6732 18.6994C21.7417 18.7125 21.812 18.7116 21.8801 18.697C21.9482 18.6823 22.0127 18.6542 22.0697 18.6142C22.1268 18.5742 22.1752 18.5232 22.2122 18.4641C22.2492 18.4051 22.2739 18.3392 22.285 18.2704C22.3185 18.0852 22.3417 17.8983 22.3541 17.7104C22.3636 17.5991 22.3724 17.4844 22.3918 17.3516C22.4399 17.0068 22.4809 16.6597 22.5145 16.3099C22.5482 15.9604 22.5729 15.6085 22.5884 15.2542C22.6059 14.8984 22.6142 14.5423 22.6135 14.1861C22.6135 13.9885 22.6037 13.7932 22.5844 13.6005C22.5652 13.4098 22.5362 13.2202 22.4974 13.0324C22.4595 12.8471 22.4122 12.6638 22.3558 12.4833C22.3006 12.3039 22.2361 12.1275 22.1624 11.9548C22.0899 11.7843 22.0095 11.6172 21.9213 11.4543C21.8337 11.292 21.738 11.1343 21.6343 10.9818C21.5313 10.8305 21.4217 10.6839 21.3058 10.5423C21.2018 10.4158 21.0921 10.2941 20.977 10.1776C20.8797 10.0815 20.7485 10.0276 20.6118 10.0273C20.4751 10.0271 20.3438 10.0805 20.2461 10.1762C20.1485 10.2718 20.0923 10.4021 20.0897 10.5387C20.0871 10.6754 20.1384 10.8076 20.2324 10.9069C20.4316 11.1104 20.612 11.3314 20.7714 11.5673C20.8555 11.6922 20.9337 11.8209 21.0058 11.9531C21.0783 12.0868 21.1444 12.224 21.2037 12.3641C21.2634 12.5047 21.3155 12.6483 21.3599 12.7944C21.4062 12.9418 21.4449 13.0914 21.476 13.2427C21.5072 13.3967 21.5306 13.5521 21.5463 13.7083C21.563 13.8678 21.5711 14.0278 21.5709 14.188C21.5709 14.5297 21.5628 14.8696 21.5468 15.2079C21.5311 15.543 21.5074 15.8776 21.4755 16.2115H21.4755ZM16.524 29.2804C16.5973 29.2804 16.6697 29.2649 16.7365 29.235C16.8033 29.2051 16.8631 29.1614 16.9119 29.1068C17.1339 28.8589 17.3499 28.6063 17.56 28.3496C17.7681 28.0923 17.9765 27.8287 18.1744 27.5643C18.3735 27.2978 18.5663 27.0266 18.7526 26.751C18.8567 26.6001 18.9562 26.4475 19.0568 26.2923C19.138 26.1661 19.2179 26.039 19.2964 25.9111C19.4721 25.6266 19.6413 25.3381 19.8037 25.0458C19.9664 24.753 20.1227 24.4565 20.2725 24.1568C20.4219 23.8559 20.5648 23.5519 20.7011 23.2448C20.8383 22.9355 20.9679 22.6229 21.09 22.3073C21.213 21.9891 21.3287 21.6746 21.4376 21.3527C21.5347 21.0664 21.6258 20.7781 21.7108 20.488C21.7919 20.2119 21.6336 19.9225 21.3575 19.8414C21.2249 19.8025 21.0822 19.818 20.961 19.8843C20.8398 19.9506 20.7498 20.0623 20.7109 20.1949C20.63 20.4716 20.5431 20.7465 20.4506 21.0194C20.3468 21.3251 20.2363 21.6284 20.1191 21.9292C20.0025 22.229 19.8789 22.526 19.7484 22.8199C19.4894 23.405 19.2038 23.978 18.8927 24.537C18.7378 24.8159 18.5764 25.0911 18.4087 25.3624C18.3339 25.485 18.2569 25.6068 18.1808 25.7272C18.0858 25.8738 17.9892 26.0194 17.8911 26.164C17.713 26.4268 17.5287 26.6854 17.3385 26.9396C17.1485 27.1936 16.9532 27.4435 16.7527 27.6892C16.5524 27.9346 16.3466 28.1755 16.1354 28.4116C16.0685 28.4865 16.0247 28.5792 16.0093 28.6784C15.9939 28.7776 16.0074 28.8792 16.0484 28.9709C16.0894 29.0626 16.1561 29.1405 16.2404 29.1952C16.3246 29.2499 16.4229 29.279 16.5233 29.2792L16.524 29.2804ZM4.80218 22.8777C4.89115 22.8777 4.97865 22.8549 5.05633 22.8116C5.24458 22.7056 5.42937 22.5936 5.61041 22.4757C5.79038 22.3581 5.96652 22.2348 6.13855 22.1059C6.31082 21.977 6.47897 21.8427 6.64276 21.7032C6.80542 21.5637 6.96366 21.4192 7.11725 21.2698C7.27122 21.1201 7.42023 20.9653 7.56402 20.8058C7.70825 20.6459 7.8468 20.4823 7.98077 20.3141C8.11475 20.1449 8.24293 19.9712 8.36511 19.7932C8.48714 19.6164 8.60331 19.4356 8.71344 19.2511C8.82336 19.0673 8.92969 18.8765 9.026 18.6834C9.12231 18.4903 9.21765 18.2943 9.30475 18.0933C9.39133 17.8934 9.47084 17.6904 9.54315 17.4849C9.61668 17.2775 9.68325 17.0677 9.74273 16.8559C9.80282 16.6426 9.8549 16.4272 9.89886 16.21C9.94275 15.9916 9.98279 15.7714 10.014 15.5475C10.0453 15.3236 10.0662 15.099 10.0839 14.8704C10.1016 14.6417 10.1072 14.4136 10.1072 14.1823C10.1072 13.9508 10.1191 13.7195 10.1428 13.4892C10.1656 13.2658 10.1995 13.0391 10.2469 12.8166C10.2918 12.5982 10.3474 12.3822 10.4136 12.1693C10.4791 11.9584 10.555 11.7509 10.6411 11.5475C10.8113 11.1449 11.0203 10.7597 11.265 10.3974C11.3589 10.2589 11.49 10.1041 11.6074 9.96417L11.7115 9.83856C11.772 9.76835 11.8126 9.68327 11.8293 9.59211C11.8459 9.50095 11.8379 9.40701 11.8061 9.31998C11.7743 9.23294 11.7198 9.15597 11.6483 9.097C11.5769 9.03803 11.491 8.99919 11.3995 8.9845C11.308 8.96979 11.2143 8.97974 11.128 9.01332C11.0416 9.0469 10.9658 9.1029 10.9083 9.17554L10.8084 9.29492C10.6687 9.4621 10.514 9.64807 10.4022 9.81567C10.2614 10.024 10.1306 10.239 10.0104 10.4598C9.88939 10.6822 9.77951 10.9105 9.68121 11.1439C9.58195 11.3788 9.49418 11.6185 9.41821 11.862C9.34164 12.1083 9.27751 12.3583 9.22607 12.6111C9.17388 12.8673 9.13424 13.1259 9.1073 13.386C9.08044 13.6513 9.06708 13.9178 9.06726 14.1844C9.06726 14.3928 9.06012 14.5986 9.04584 14.8017C9.03215 15.0036 9.01147 15.2049 8.98382 15.4053C8.95685 15.6037 8.92181 15.8021 8.87964 15.9974C8.8374 16.1929 8.79162 16.3856 8.73804 16.5756C8.68432 16.7658 8.62665 16.9522 8.56042 17.1375C8.49454 17.3212 8.42314 17.5029 8.34631 17.6823C8.26993 17.8609 8.18707 18.0368 8.0979 18.2094C7.92156 18.553 7.72311 18.8848 7.50378 19.2026C7.39408 19.3609 7.27939 19.5156 7.15991 19.6666C7.04093 19.8176 6.91671 19.9644 6.78747 20.1067C6.65867 20.2498 6.52542 20.3888 6.38794 20.5235C6.25048 20.6579 6.10839 20.7876 5.96191 20.9121C5.815 21.037 5.6662 21.1567 5.51147 21.2724C5.35675 21.3881 5.19897 21.4984 5.03796 21.6038C4.87664 21.7092 4.71182 21.809 4.54376 21.9033C4.44326 21.9596 4.3643 22.0477 4.31925 22.1538C4.27421 22.2598 4.26563 22.3778 4.29486 22.4893C4.32405 22.6007 4.38935 22.6993 4.48053 22.7696C4.57172 22.84 4.68365 22.8781 4.79883 22.8781L4.80218 22.8777Z" fill="white"/>
<path id="Vector_3" d="M23.1213 11.5513C23.2076 11.7542 23.2834 11.9614 23.3485 12.1721C23.4053 12.3523 23.4544 12.5359 23.4954 12.7226C23.5134 12.8135 23.5553 12.898 23.6167 12.9673C23.6782 13.0366 23.7571 13.0882 23.8451 13.1169C23.8665 13.2052 23.9105 13.2864 23.9729 13.3524C24.0353 13.4184 24.1138 13.467 24.2008 13.4933C24.2877 13.5196 24.3801 13.5226 24.4686 13.5022C24.5571 13.4818 24.6387 13.4386 24.7054 13.3769C24.772 13.3152 24.8214 13.2372 24.8486 13.1505C24.8758 13.0638 24.8798 12.9715 24.8603 12.8828C24.8408 12.7941 24.7985 12.712 24.7374 12.6447C24.6764 12.5774 24.5989 12.5273 24.5125 12.4992C24.4653 12.285 24.4089 12.0728 24.3437 11.8634C24.2681 11.6197 24.1804 11.3799 24.0807 11.145C23.9821 10.912 23.8723 10.684 23.7514 10.4617C23.6317 10.2407 23.5012 10.0257 23.3605 9.81749C23.2201 9.61007 23.0701 9.40935 22.911 9.21599C22.7515 9.02165 22.5827 8.83714 22.4073 8.66166C22.2318 8.48619 22.0458 8.31736 21.852 8.1569C21.659 7.99761 21.4584 7.8478 21.2509 7.70799C21.0428 7.56731 20.8279 7.43681 20.6072 7.31694C20.1605 7.07381 19.6909 6.8753 19.2053 6.72429C18.959 6.6475 18.709 6.58333 18.4562 6.53203C18.2 6.47965 17.9414 6.44005 17.6813 6.41337C17.1502 6.36021 16.615 6.36021 16.0839 6.41337C15.8239 6.43982 15.5653 6.47944 15.3093 6.53209C15.0563 6.58336 14.806 6.64744 14.5594 6.72423C14.3158 6.80019 14.0761 6.88796 13.841 6.98723C13.608 7.08571 13.38 7.19558 13.1578 7.31645C13.0385 7.38353 12.9504 7.49485 12.9126 7.62636C12.8747 7.75786 12.8901 7.89898 12.9554 8.01923C13.0207 8.13948 13.1307 8.22921 13.2617 8.26901C13.3926 8.30882 13.5339 8.29552 13.6551 8.23198C13.848 8.12742 14.0458 8.0322 14.2478 7.94664C14.4509 7.86046 14.6581 7.78448 14.8687 7.71898C15.0822 7.6531 15.2988 7.59747 15.5177 7.55229C15.7398 7.50627 15.964 7.47172 16.1895 7.4481C16.6502 7.40185 17.1143 7.40185 17.575 7.4481C17.801 7.47148 18.0256 7.50627 18.2478 7.55229C18.4631 7.59617 18.6813 7.65239 18.8963 7.71843C19.1114 7.78447 19.313 7.86003 19.5176 7.94609C19.7224 8.03196 19.9172 8.12687 20.1094 8.23155C20.3015 8.33623 20.487 8.44822 20.6678 8.57054C20.8484 8.69285 21.0218 8.82206 21.1884 8.96013C21.3556 9.09843 21.5162 9.24442 21.6698 9.39763C21.8233 9.5506 21.9691 9.71101 22.1069 9.87828C22.2446 10.046 22.3747 10.2198 22.4969 10.3992C22.6196 10.5792 22.7326 10.7656 22.8354 10.9576C22.9392 11.1512 23.0369 11.3508 23.1213 11.5513ZM19.391 29.0705C19.4719 29.0705 19.5517 29.0517 19.624 29.0155C19.6963 28.9793 19.7593 28.9268 19.8078 28.8621C19.9994 28.6065 20.1861 28.3474 20.3676 28.0841C20.5495 27.8204 20.7266 27.5534 20.8985 27.2831C21.0701 27.012 21.2366 26.7378 21.398 26.4606C21.5597 26.1827 21.7159 25.9018 21.8667 25.618C22.017 25.3329 22.1621 25.0452 22.3021 24.7549C22.4411 24.4636 22.5747 24.1696 22.7026 23.8732C22.8302 23.5769 22.9542 23.2757 23.0703 22.9727C23.1864 22.6694 23.2984 22.3633 23.4021 22.055C23.5057 21.7465 23.6062 21.4347 23.6985 21.1174C23.7906 20.8002 23.878 20.4867 23.9588 20.1679C24.0394 19.8492 24.115 19.5268 24.1806 19.2024C24.2464 18.8778 24.3098 18.5517 24.3647 18.2232C24.4192 17.8944 24.4689 17.5637 24.5084 17.2335C24.548 16.9033 24.5843 16.5655 24.6123 16.2278C24.6405 15.8903 24.6598 15.5867 24.6734 15.246C24.6839 14.959 24.46 14.7174 24.173 14.7065H24.151C24.0165 14.7064 23.8871 14.7583 23.7901 14.8514C23.693 14.9445 23.6357 15.0716 23.6301 15.206C23.6172 15.5188 23.5978 15.8314 23.5719 16.1435C23.5459 16.4639 23.5121 16.7872 23.4723 17.1054C23.4329 17.4234 23.3869 17.7405 23.3345 18.0565C23.2819 18.3701 23.2233 18.6826 23.1587 18.994C23.0947 19.3035 23.0239 19.6115 22.9463 19.9178C22.8695 20.2228 22.7866 20.5262 22.6979 20.8279C22.6096 21.1279 22.515 21.4261 22.4141 21.7222C22.3131 22.0185 22.2058 22.3102 22.0964 22.6003C21.9869 22.8905 21.8677 23.1773 21.7442 23.4621C21.6207 23.7471 21.4944 24.0284 21.3608 24.306C21.2273 24.584 21.0884 24.8594 20.9443 25.1321C20.8005 25.4042 20.6511 25.6734 20.4963 25.9394C20.3416 26.2049 20.1838 26.4679 20.0188 26.7264C19.8536 26.9845 19.6843 27.2409 19.5105 27.4934C19.3365 27.7453 19.1577 27.9937 18.974 28.2386C18.9159 28.316 18.8804 28.408 18.8717 28.5044C18.863 28.6008 18.8812 28.6977 18.9245 28.7842C18.9678 28.8708 19.0343 28.9436 19.1166 28.9944C19.1989 29.0453 19.2938 29.0722 19.3905 29.0722L19.391 29.0705ZM25.6874 26.1174C25.8136 26.1737 25.957 26.1776 26.086 26.1282C26.215 26.0788 26.3192 25.9802 26.3755 25.854C26.4748 25.6307 26.5717 25.4063 26.6661 25.181C26.7606 24.9554 26.8518 24.7285 26.9396 24.5003C27.0281 24.2712 27.1136 24.0413 27.1968 23.8091C27.2796 23.5775 27.3593 23.3449 27.436 23.1112C27.513 22.8769 27.5864 22.6425 27.6577 22.4055C27.729 22.1686 27.797 21.9307 27.8616 21.6919C27.9259 21.4533 27.9891 21.2122 28.048 20.9705C28.107 20.7282 28.1629 20.4851 28.2156 20.2414C28.2683 19.997 28.3198 19.7519 28.3641 19.5059C28.4082 19.2601 28.4548 19.0121 28.4943 18.7644C28.5339 18.5164 28.5718 18.2659 28.6051 18.0153C28.6385 17.7649 28.6693 17.5127 28.6963 17.2612C28.7234 17.0096 28.7485 16.7546 28.7678 16.5022L28.7832 16.3111C28.8071 16.0245 28.5937 15.7727 28.3069 15.7489C28.1692 15.7376 28.0327 15.7814 27.9272 15.8707C27.8218 15.96 27.7562 16.0875 27.7447 16.2252L27.7292 16.4169C27.7098 16.6615 27.6871 16.9058 27.6611 17.1498C27.6348 17.394 27.6053 17.6352 27.5728 17.8789C27.5406 18.1225 27.5051 18.3608 27.4686 18.6008C27.4324 18.8409 27.388 19.0779 27.3432 19.3158C27.2984 19.5538 27.251 19.7889 27.1999 20.0237C27.1494 20.2583 27.0954 20.4921 27.0381 20.7251C26.9801 20.958 26.9224 21.1893 26.8595 21.4211C26.7969 21.6509 26.7313 21.8799 26.6625 22.108C26.5942 22.3345 26.5231 22.5602 26.4494 22.7851C26.3753 23.0104 26.2982 23.2348 26.2181 23.4581C26.1385 23.6808 26.0561 23.9025 25.9709 24.1231C25.8855 24.343 25.7976 24.562 25.7072 24.7799C25.6166 24.9975 25.5232 25.2138 25.427 25.4289C25.3091 25.6909 25.4256 25.9989 25.6874 26.1174ZM28.7995 12.9618C28.7194 12.1682 28.5596 11.3846 28.3224 10.6231C28.2957 10.5383 28.2702 10.4538 28.2411 10.3706C28.2122 10.2838 28.1609 10.206 28.0924 10.1453C28.0239 10.0846 27.9405 10.043 27.8508 10.0247C27.7611 10.0063 27.6681 10.0119 27.5812 10.0409C27.4944 10.0699 27.4166 10.1212 27.3559 10.1897C27.2951 10.2582 27.2535 10.3416 27.2352 10.4313C27.2168 10.521 27.2225 10.614 27.2514 10.7008L27.3265 10.9326C27.4336 11.2774 27.5237 11.6272 27.5964 11.9809C27.6698 12.3398 27.7249 12.7023 27.7614 13.0669C27.7995 13.4386 27.8191 13.8119 27.8198 14.1855C27.8198 14.3237 27.8747 14.4561 27.9724 14.5538C28.07 14.6515 28.2025 14.7064 28.3406 14.7064C28.4788 14.7064 28.6113 14.6515 28.7089 14.5538C28.8066 14.4561 28.8615 14.3237 28.8615 14.1855C28.8613 13.7768 28.8406 13.3684 28.7995 12.9618ZM23.8396 5.74815C24.1098 5.97154 24.3708 6.20897 24.6162 6.45433C25.1121 6.95032 25.5594 7.49258 25.9521 8.07371C26.1492 8.36512 26.3321 8.66598 26.4999 8.9752C26.5436 9.05556 26.6077 9.12301 26.6857 9.17079C26.7637 9.21857 26.8529 9.245 26.9444 9.24742C27.0358 9.24973 27.1262 9.22797 27.2065 9.18433C27.2869 9.14069 27.3543 9.07669 27.4021 8.99876C27.4499 8.92074 27.4763 8.83154 27.4786 8.74011C27.481 8.64867 27.4593 8.55822 27.4157 8.47783C27.2308 8.139 27.0305 7.80876 26.8156 7.48814C26.6011 7.16844 26.3671 6.8585 26.1256 6.5659C25.6372 5.97453 25.0938 5.43087 24.5027 4.94224C24.2064 4.69799 23.8985 4.46807 23.5802 4.25328C23.5237 4.21263 23.4595 4.18375 23.3915 4.16834C23.3236 4.15293 23.2532 4.15131 23.1846 4.16358C23.1161 4.17584 23.0506 4.20174 22.9922 4.23974C22.9338 4.27774 22.8836 4.32708 22.8446 4.38482C22.8056 4.44256 22.7786 4.50753 22.7652 4.5759C22.7517 4.64427 22.7522 4.71464 22.7664 4.78284C22.7806 4.85105 22.8084 4.9157 22.8481 4.97298C22.8878 5.03026 22.9385 5.079 22.9974 5.11631C23.2886 5.31256 23.5697 5.52345 23.8396 5.74815ZM14.0592 3.61577C14.2639 3.5615 14.4701 3.51292 14.6775 3.47007C15.0363 3.39692 15.3986 3.34177 15.763 3.30485C16.5077 3.22927 17.2581 3.22927 18.0027 3.30485C18.367 3.34178 18.7297 3.39689 19.0885 3.47007C19.4419 3.54255 19.7914 3.63255 20.1358 3.73973C20.4313 3.83193 20.7229 3.9362 21.0099 4.05229C21.0733 4.07843 21.1413 4.09179 21.2099 4.09159C21.2785 4.09139 21.3464 4.07764 21.4097 4.05112C21.473 4.02461 21.5304 3.98586 21.5787 3.93709C21.6269 3.88832 21.6651 3.8305 21.691 3.76695C21.7168 3.70339 21.7299 3.63535 21.7294 3.56674C21.7289 3.49813 21.7148 3.43029 21.688 3.36713C21.6612 3.30396 21.6222 3.24671 21.5732 3.19866C21.5242 3.15061 21.4662 3.11271 21.4026 3.08714C21.0884 2.9596 20.769 2.84517 20.4453 2.74412C20.0684 2.62706 19.686 2.52847 19.2995 2.44871C18.9065 2.36831 18.5096 2.30781 18.1105 2.26744C17.2966 2.18494 16.4763 2.18494 15.6624 2.26744C15.2632 2.30778 14.8661 2.36833 14.4729 2.44871C14.2447 2.49571 14.019 2.54857 13.7958 2.60795C13.6623 2.64357 13.5485 2.73072 13.4792 2.85026C13.4099 2.9698 13.391 3.11195 13.4265 3.24547C13.5007 3.52348 13.786 3.68895 14.064 3.61479L14.0592 3.61577ZM5.22227 15.7148C5.28933 15.7285 5.35844 15.7287 5.42561 15.7155C5.49277 15.7023 5.55665 15.676 5.61356 15.6379C5.67047 15.5999 5.71928 15.551 5.75716 15.494C5.79505 15.437 5.82125 15.373 5.83427 15.3058C5.85849 15.185 5.87885 15.0634 5.89531 14.9413C5.91203 14.82 5.92399 14.6908 5.93229 14.5663C5.94065 14.4396 5.94479 14.3126 5.94468 14.1855C5.94496 13.4451 6.01932 12.7066 6.16667 11.9809C6.23956 11.6273 6.3298 11.2774 6.43705 10.9326C6.54281 10.592 6.66533 10.2568 6.80418 9.92833C6.94186 9.60229 7.09566 9.28329 7.265 8.97252C7.43382 8.6638 7.61766 8.35862 7.81248 8.0706C8.00858 7.77999 8.21871 7.4991 8.44212 7.22892C8.66502 6.96006 8.90251 6.69706 9.1483 6.4517C9.39628 6.20437 9.65566 5.96872 9.92558 5.74553C10.1952 5.52263 10.4761 5.31279 10.7676 5.11589C11.0595 4.91893 11.3603 4.73564 11.6703 4.56797C11.8781 4.45533 12.0893 4.34904 12.3036 4.24925C12.3893 4.21273 12.4637 4.15386 12.5189 4.07878C12.5742 4.0037 12.6082 3.91517 12.6175 3.82243C12.627 3.72974 12.6114 3.63621 12.5723 3.55162C12.5333 3.46703 12.4722 3.39447 12.3955 3.34153C12.3189 3.2886 12.2295 3.25718 12.1365 3.25056C12.0436 3.24394 11.9506 3.26235 11.8672 3.30388C11.6316 3.41218 11.3996 3.52836 11.1718 3.6522C10.8328 3.83692 10.5027 4.03734 10.1824 4.25279C9.86357 4.4669 9.55314 4.70079 9.26036 4.9423C8.96504 5.18628 8.6814 5.44405 8.41038 5.71476C8.13949 5.98582 7.88195 6.26989 7.63865 6.56596C7.39427 6.86277 7.16252 7.17204 6.94938 7.48765C6.73649 7.80333 6.53288 8.13524 6.34953 8.47734C6.16618 8.81944 5.99522 9.16801 5.84477 9.5247C5.69269 9.88476 5.55831 10.252 5.44212 10.6252C5.32434 11.003 5.22566 11.3865 5.14647 11.7742C5.0662 12.1673 5.0055 12.5641 4.96458 12.9632C4.92382 13.3694 4.90329 13.7773 4.90306 14.1855C4.90306 14.2897 4.89994 14.394 4.8928 14.4981C4.88611 14.5999 4.87599 14.7013 4.86247 14.8023C4.84903 14.9025 4.8325 15.0022 4.81291 15.1013C4.79946 15.1685 4.79939 15.2377 4.81269 15.3049C4.82599 15.3721 4.8524 15.436 4.89042 15.493C4.92843 15.55 4.97731 15.5989 5.03425 15.637C5.0912 15.675 5.15509 15.7014 5.22227 15.7148ZM4.14634 16.7378C4.09379 16.8193 4.03833 16.8988 3.98008 16.9762C3.92258 17.0545 3.86215 17.1306 3.79893 17.2044C3.73643 17.2762 3.67039 17.3513 3.6046 17.4206C3.53728 17.4911 3.46779 17.5595 3.39622 17.6257C3.32569 17.6913 3.25293 17.7546 3.17808 17.8152C3.10417 17.8758 3.02549 17.9361 2.94584 17.9936C2.86684 18.0503 2.78605 18.1044 2.70359 18.1559C2.60913 18.2164 2.53672 18.3058 2.49712 18.4107C2.45753 18.5156 2.45287 18.6306 2.48384 18.7384C2.51481 18.8462 2.57976 18.9411 2.66901 19.009C2.75827 19.0769 2.86707 19.1142 2.97923 19.1153C3.07689 19.1155 3.17258 19.0879 3.25511 19.0357C3.45674 18.9094 3.65038 18.7708 3.83494 18.6206C3.92644 18.5458 4.01555 18.4681 4.10215 18.3877C4.18927 18.3069 4.27418 18.2237 4.35679 18.1383C4.44047 18.0517 4.51652 17.9654 4.59379 17.8746C4.67015 17.7846 4.74347 17.692 4.81364 17.5971C4.88501 17.5015 4.95338 17.4037 5.01866 17.3038C5.07471 17.2274 5.10883 17.1371 5.11735 17.0427C5.12587 16.9483 5.10845 16.8534 5.06699 16.7682C5.02553 16.6829 4.96158 16.6106 4.88205 16.5591C4.80253 16.5075 4.71043 16.4786 4.6157 16.4756C4.52101 16.4724 4.42726 16.4952 4.34455 16.5414C4.26184 16.5876 4.19331 16.6555 4.14634 16.7378ZM4.87492 20.4534C5.0103 20.3492 5.14384 20.245 5.27348 20.1363C5.40329 20.0265 5.52919 19.9121 5.65092 19.7934C5.77299 19.6752 5.89177 19.5533 6.00572 19.4289C6.06731 19.3612 6.10999 19.2785 6.12945 19.1891C6.1489 19.0997 6.14446 19.0067 6.11656 18.9196C6.08874 18.8324 6.03846 18.7541 5.97077 18.6925C5.90308 18.631 5.82038 18.5883 5.73097 18.5688C5.64156 18.5493 5.5486 18.5537 5.46143 18.5816C5.37427 18.6094 5.29597 18.6598 5.23442 18.7275C5.13498 18.8363 5.03234 18.9422 4.92662 19.045C4.82103 19.1476 4.71177 19.2464 4.59904 19.3418C4.48698 19.4377 4.37089 19.53 4.25261 19.6179C4.13432 19.7059 4.01255 19.7903 3.8881 19.8711C3.76387 19.9515 3.63706 20.0277 3.50785 20.0998C3.39456 20.1705 3.3128 20.2822 3.27952 20.4115C3.24623 20.5409 3.26395 20.6781 3.32902 20.7948C3.39396 20.9115 3.50127 20.9988 3.62876 21.0386C3.75624 21.0784 3.89415 21.0677 4.01396 21.0086C4.16345 20.9251 4.31024 20.8369 4.45408 20.744C4.5975 20.6517 4.73785 20.5548 4.87492 20.4534ZM22.2458 28.0856C22.4919 28.2344 22.8121 28.1557 22.9609 27.9096C23.1122 27.6595 23.2598 27.4066 23.4036 27.1503C23.5474 26.894 23.6864 26.6358 23.8204 26.3757C23.9552 26.115 24.0862 25.8518 24.213 25.5862C24.3352 25.3298 24.4529 25.0712 24.5661 24.8106C24.6188 24.6844 24.6197 24.5426 24.5687 24.4157C24.5177 24.2888 24.4189 24.1871 24.2936 24.1324C24.1683 24.0777 24.0265 24.0745 23.8988 24.1234C23.7711 24.1723 23.6677 24.2695 23.611 24.3939C23.498 24.6545 23.3931 24.8815 23.2718 25.1373C23.1505 25.3922 23.0248 25.645 22.8948 25.8955C22.7653 26.1457 22.6319 26.3938 22.4947 26.6398C22.3576 26.8854 22.216 27.1285 22.0699 27.3689C22.0343 27.4275 22.0105 27.4925 22.0001 27.5603C21.9896 27.6281 21.9927 27.6972 22.009 27.7638C22.0253 27.8304 22.0547 27.8931 22.0953 27.9483C22.136 28.0036 22.1871 28.0502 22.2458 28.0856Z" fill="white"/>
<path id="Vector_4" d="M24.8629 23.1337C24.9717 23.1336 25.0776 23.0995 25.166 23.0362C25.2544 22.9729 25.3207 22.8835 25.3558 22.7806C25.4119 22.6163 25.4664 22.4514 25.5194 22.2861C25.6105 22.0016 25.6973 21.7157 25.7797 21.4285C25.862 21.1409 25.9359 20.8503 26.01 20.5597C26.0839 20.269 26.149 19.9741 26.2114 19.6783C26.2739 19.3819 26.3312 19.0844 26.3834 18.7861C26.4359 18.4861 26.4818 18.1872 26.5245 17.8846C26.5672 17.5821 26.6032 17.2788 26.6359 16.9731C26.6688 16.6675 26.6943 16.3607 26.7157 16.0524C26.737 15.7441 26.7536 15.4337 26.7637 15.1233C26.7735 14.8129 26.7802 14.4982 26.7802 14.1855C26.7802 13.8477 26.763 13.5087 26.7282 13.1747C26.6945 12.8449 26.6443 12.5171 26.5777 12.1924C26.5127 11.8723 26.4312 11.5557 26.3338 11.244C26.2396 10.9398 26.1257 10.6336 26.0005 10.3337C25.865 10.0132 25.5766 9.47418 25.4588 9.25744C25.3215 9.00476 25.0051 8.91101 24.7523 9.04834C24.4994 9.18567 24.406 9.50207 24.5433 9.75506C24.774 10.1785 24.96 10.5461 25.0411 10.7393C25.3837 11.5488 25.6029 12.4052 25.6912 13.2798C25.7218 13.5809 25.7368 13.8832 25.7365 14.1856C25.7366 14.7844 25.7157 15.383 25.6741 15.9804C25.6534 16.2759 25.628 16.5711 25.598 16.8658C25.5683 17.1596 25.5313 17.4519 25.4939 17.7413C25.4562 18.031 25.4073 18.3212 25.3573 18.608C25.3078 18.8947 25.2529 19.1803 25.1927 19.4649C25.1328 19.7481 25.068 20.0303 24.9984 20.3113C24.9295 20.5902 24.8562 20.868 24.7786 21.1445C24.7005 21.4204 24.6177 21.695 24.5302 21.968C24.4795 22.1271 24.4274 22.2857 24.374 22.4439C24.3294 22.5747 24.3386 22.7178 24.3996 22.8417C24.4605 22.9657 24.5682 23.0604 24.6989 23.105C24.7517 23.1234 24.8072 23.1329 24.863 23.1337H24.8629ZM20.7343 5.06799C20.4369 4.94193 20.1334 4.83069 19.825 4.73468C19.196 4.53962 18.549 4.40806 17.8938 4.34198C17.8028 4.33281 17.7111 4.34776 17.6277 4.38532C17.5444 4.42288 17.4724 4.48172 17.4189 4.55593C17.3655 4.63013 17.3326 4.7171 17.3235 4.80807C17.3143 4.89904 17.3293 4.99081 17.3669 5.07415C17.4045 5.15747 17.4633 5.22945 17.5375 5.28285C17.6117 5.33625 17.6986 5.36921 17.7896 5.37842C18.0848 5.40819 18.3783 5.45307 18.6689 5.51288C18.955 5.5708 19.2382 5.64349 19.5172 5.73053C19.793 5.8165 20.0645 5.91588 20.3306 6.02832C20.5945 6.13943 20.8527 6.26373 21.1041 6.40075C21.3543 6.53672 21.5977 6.6848 21.8335 6.84448C22.0682 7.00387 22.2955 7.17404 22.5146 7.35443C22.6896 7.49865 23.1283 7.92328 23.4608 8.25592C23.5591 8.35077 23.6908 8.40322 23.8273 8.40196C23.9639 8.40071 24.0946 8.34585 24.1911 8.2492C24.2876 8.15254 24.3423 8.02183 24.3434 7.88523C24.3445 7.74864 24.2918 7.61709 24.1969 7.51892C24.0755 7.39758 23.4559 6.78051 23.1771 6.55023C22.9327 6.34824 22.6785 6.15824 22.4156 5.98089C22.1515 5.80284 21.8792 5.63726 21.5996 5.48468C21.3181 5.33176 21.0293 5.19269 20.7343 5.06799ZM11.349 5.9804C11.0886 6.15704 10.8283 6.34875 10.587 6.54974C10.3438 6.75226 10.1095 6.96527 9.88484 7.18817C9.66085 7.41171 9.44791 7.64606 9.24678 7.89038C9.04483 8.13527 8.85454 8.38954 8.67653 8.65234C8.60124 8.7671 8.57414 8.90688 8.60109 9.04146C8.62805 9.17604 8.70689 9.2946 8.82057 9.37151C8.93425 9.44842 9.07363 9.47749 9.20858 9.45245C9.34352 9.4274 9.46319 9.35025 9.5417 9.23767C9.70003 9.00213 9.87 8.77464 10.051 8.55603C10.2314 8.33691 10.4226 8.12692 10.6239 7.92682C10.8256 7.72723 11.0349 7.53509 11.2531 7.35394C11.4718 7.17293 11.6992 7.00272 11.9345 6.84393C12.1704 6.68464 12.4137 6.53657 12.6636 6.4002C12.912 6.26434 13.1745 6.13989 13.437 6.02734C13.6995 5.91485 13.977 5.81494 14.2505 5.7301C14.5294 5.64342 14.8124 5.57068 15.0985 5.51214C15.1657 5.49863 15.2296 5.472 15.2864 5.43376C15.3433 5.39553 15.3921 5.34644 15.43 5.28933C15.4678 5.23221 15.4941 5.16818 15.5071 5.10091C15.5202 5.03364 15.5199 4.96445 15.5062 4.89731C15.4925 4.83016 15.4656 4.76638 15.4272 4.70962C15.3888 4.65286 15.3396 4.60423 15.2824 4.56653C15.2252 4.52883 15.1611 4.50279 15.0938 4.48991C15.0264 4.47702 14.9573 4.47755 14.8902 4.49145C14.5702 4.55699 14.2537 4.63833 13.9417 4.73517C13.6301 4.83191 13.3297 4.94354 13.0317 5.06842C12.7365 5.19269 12.4478 5.3318 12.1667 5.48523C11.8864 5.63723 11.6135 5.80248 11.349 5.9804ZM6.57912 17.7826C6.70587 17.8375 6.84923 17.8398 6.97768 17.789C7.10613 17.7382 7.20916 17.6385 7.26411 17.5118C7.28487 17.4643 7.31874 17.3914 7.35567 17.3101C7.44008 17.1284 7.5395 16.9107 7.57857 16.8008C7.63785 16.6369 7.69004 16.4706 7.735 16.3022C7.77913 16.1346 7.82442 15.9632 7.85994 15.7913C7.89522 15.6194 7.92671 15.4434 7.951 15.2663C7.97554 15.0894 7.99434 14.9111 8.00679 14.731C8.01918 14.5508 8.02565 14.3663 8.02565 14.1855C8.02565 13.8832 8.04091 13.5809 8.07143 13.2798C8.1017 12.9825 8.14699 12.6871 8.20515 12.4008C8.26619 12.1044 8.41829 11.4867 8.50319 11.2158C8.53062 11.1285 8.53457 11.0355 8.51465 10.9462C8.49472 10.8569 8.45161 10.7744 8.38966 10.707C8.32777 10.6396 8.24923 10.5897 8.16194 10.5623C8.07465 10.5349 7.98167 10.5309 7.89236 10.5508C7.80304 10.5707 7.72053 10.6137 7.65312 10.6756C7.58571 10.7374 7.53577 10.816 7.50832 10.9033C7.41194 11.2158 7.25221 11.8617 7.18495 12.1893C7.11845 12.5143 7.06839 12.8425 7.03499 13.1725C7.0016 13.5049 6.9828 13.8456 6.9828 14.1837C6.9828 14.3398 6.97755 14.5003 6.96608 14.6569C6.95467 14.8138 6.93965 14.9695 6.91817 15.1212C6.89692 15.2736 6.87051 15.4252 6.839 15.5758C6.8078 15.7249 6.77171 15.8728 6.73079 16.0195C6.69005 16.164 6.64456 16.3071 6.59438 16.4486C6.56203 16.5397 6.47713 16.72 6.40724 16.8707C6.3729 16.9456 6.33817 17.0204 6.30305 17.095C6.27564 17.1582 6.26103 17.2262 6.26009 17.2951C6.25915 17.364 6.27188 17.4325 6.29755 17.4964C6.32323 17.5604 6.36134 17.6186 6.40967 17.6677C6.458 17.7168 6.51559 17.7559 6.57912 17.7826Z" fill="white"/>
</g>
</svg>
