<svg width="24" height="32" viewBox="0 0 24 32" fill="none" xmlns="http://www.w3.org/2000/svg">
<g id="icon">
<path id="Vector" d="M9.98325 15.9233C10.0304 15.886 10.0697 15.8398 10.099 15.7873C10.1283 15.7347 10.1469 15.677 10.1539 15.6173C10.1608 15.5576 10.1559 15.4971 10.1395 15.4392C10.1231 15.3814 10.0954 15.3274 10.0581 15.2803C6.78458 11.1432 6.09726 8.46222 6.09726 6.94128C6.09726 3.6864 8.74509 1.03851 12 1.03851C15.2547 1.03851 17.9026 3.6864 17.9026 6.94122C17.9026 10.9651 13.2774 16.1719 11.9995 17.5335C11.7843 17.3047 11.5725 17.0728 11.3642 16.8378C11.3243 16.7928 11.2759 16.7562 11.2218 16.7299C11.1678 16.7037 11.109 16.6883 11.049 16.6847C10.989 16.6812 10.9289 16.6895 10.8721 16.7092C10.8153 16.7288 10.763 16.7595 10.718 16.7994C10.6731 16.8393 10.6364 16.8877 10.6101 16.9417C10.5839 16.9958 10.5685 17.0545 10.5649 17.1145C10.5613 17.1745 10.5696 17.2346 10.5892 17.2914C10.6089 17.3482 10.6395 17.4006 10.6794 17.4456C11.2693 18.1102 11.6598 18.5017 11.6762 18.5179C11.7187 18.5605 11.7692 18.5942 11.8248 18.6173C11.8803 18.6403 11.9398 18.6521 12 18.6522C12.1214 18.6521 12.2377 18.6038 12.3235 18.5179C12.5889 18.2528 18.818 11.9658 18.818 6.94128C18.8181 3.1817 15.7596 0.123047 12 0.123047C8.24045 0.123047 5.18179 3.1817 5.18179 6.94128C5.18179 9.95972 7.44315 13.4511 9.34024 15.8484C9.4156 15.9436 9.52568 16.005 9.64628 16.019C9.76687 16.0331 9.88804 15.9986 9.98325 15.9233Z" fill="white"/>
<path id="Vector_2" d="M22.2746 19.6936H21.5633C21.1208 17.4841 19.9229 15.4941 18.1608 14.0569C18.1142 14.0189 18.0606 13.9905 18.003 13.9732C17.9455 13.956 17.8851 13.9502 17.8253 13.9563C17.7655 13.9624 17.7075 13.9802 17.6545 14.0087C17.6016 14.0372 17.5548 14.0758 17.5169 14.1224C17.4788 14.169 17.4504 14.2226 17.4331 14.2802C17.4158 14.3377 17.41 14.3982 17.416 14.458C17.4221 14.5178 17.4399 14.5758 17.4684 14.6287C17.4969 14.6817 17.5356 14.7284 17.5822 14.7664C19.1311 16.0298 20.199 17.764 20.6277 19.6936H20.3175C19.7954 19.6936 19.3705 20.1184 19.3705 20.6406V21.1615H13.9256V20.6406C13.9256 20.1184 13.5009 19.6936 12.9785 19.6936H11.0216C10.4995 19.6936 10.0746 20.1184 10.0746 20.6406V21.1615H4.62955V20.6406C4.62955 20.1184 4.20468 19.6936 3.68253 19.6936H3.37259C3.80124 17.764 4.86893 16.0298 6.41812 14.7664C6.51215 14.6896 6.57185 14.5786 6.58409 14.4578C6.59634 14.337 6.56013 14.2163 6.48343 14.1222C6.40667 14.0282 6.29573 13.9685 6.17499 13.9562C6.05424 13.944 5.93357 13.9802 5.83951 14.0569C4.07736 15.4941 2.87955 17.4841 2.43704 19.6938H1.72537C1.20316 19.6938 0.778351 20.1184 0.778351 20.6408V22.5978C0.778351 23.1199 1.20316 23.5447 1.72537 23.5447H2.4368C2.86142 25.6617 3.9877 27.5909 5.63663 29.0117C7.4042 30.5345 9.66397 31.373 12 31.373C14.3358 31.373 16.5957 30.5345 18.3631 29.0117C20.0123 27.5909 21.1384 25.6617 21.5632 23.5447H22.2746C22.7968 23.5447 23.2216 23.1199 23.2216 22.5978V20.6406C23.2216 20.1184 22.7968 19.6936 22.2746 19.6936ZM10.9901 20.6406C10.9901 20.6234 11.0042 20.6091 11.0216 20.6091H12.9785C12.9959 20.6091 13.01 20.6232 13.01 20.6406V22.5978C13.01 22.6152 12.9959 22.6292 12.9785 22.6292H11.0216C11.0132 22.6292 11.0052 22.6259 10.9993 22.62C10.9935 22.6141 10.9901 22.6061 10.9901 22.5978V20.6406ZM1.69388 22.5978V20.6406C1.69388 20.6234 1.70792 20.6091 1.72537 20.6091H3.68228C3.69968 20.6091 3.71402 20.6234 3.71402 20.6406V22.5978C3.71397 22.6062 3.7106 22.6142 3.70465 22.6201C3.6987 22.626 3.69066 22.6292 3.68228 22.6292H1.72537C1.72124 22.6292 1.71715 22.6284 1.71332 22.6268C1.7095 22.6253 1.70603 22.6229 1.70311 22.62C1.70018 22.6171 1.69786 22.6136 1.69628 22.6098C1.69469 22.606 1.69388 22.6019 1.69388 22.5978ZM17.7657 28.3181C16.1642 29.6976 14.1167 30.4575 12 30.4575C9.88327 30.4575 7.83578 29.6976 6.23434 28.3182C4.78659 27.071 3.7836 25.3915 3.37259 23.5447H3.68253C4.20468 23.5447 4.62955 23.1199 4.62955 22.5978V22.0768H10.0745V22.5978C10.0745 23.1199 10.4992 23.5447 11.0215 23.5447H12.9785C13.5006 23.5447 13.9254 23.1199 13.9254 22.5978V22.0768H19.3705V22.5978C19.3705 23.1199 19.7953 23.5447 20.3175 23.5447H20.6274C20.2164 25.3915 19.2133 27.071 17.7657 28.3181ZM22.3061 22.5978C22.3061 22.6152 22.292 22.6292 22.2746 22.6292H20.3175C20.3134 22.6292 20.3093 22.6284 20.3055 22.6268C20.3017 22.6253 20.2982 22.6229 20.2953 22.62C20.2923 22.6171 20.29 22.6136 20.2884 22.6098C20.2869 22.606 20.286 22.6019 20.286 22.5978V20.6406C20.286 20.6234 20.3001 20.6091 20.3175 20.6091H22.2747C22.2921 20.6091 22.3062 20.6234 22.3062 20.6406L22.3061 22.5978ZM9.58511 4.98413V9.38745C9.58511 9.50886 9.63334 9.62529 9.71919 9.71114C9.80504 9.79699 9.92147 9.84522 10.0429 9.84522C10.2958 9.84522 10.5006 9.64044 10.5006 9.38745V4.98413C10.5006 4.86272 10.4524 4.74629 10.3666 4.66044C10.2807 4.5746 10.1643 4.52637 10.0429 4.52637C9.92147 4.52637 9.80504 4.5746 9.71919 4.66044C9.63334 4.74629 9.58511 4.86272 9.58511 4.98413ZM12.4577 9.38751V7.88831H13.2231C14.1501 7.88831 14.9041 7.13416 14.9041 6.2074C14.9041 5.28046 14.1501 4.52637 13.2231 4.52637H12C11.7473 4.52637 11.5422 4.73138 11.5422 4.98413V9.38745C11.5422 9.50886 11.5904 9.62529 11.6763 9.71114C11.7621 9.79699 11.8786 9.84522 12 9.84522C12.1214 9.84522 12.2378 9.79699 12.3237 9.71114C12.4095 9.62529 12.4577 9.50892 12.4577 9.38751ZM12.4577 5.44189H13.2231C13.6453 5.44189 13.9886 5.78522 13.9886 6.20746C13.9886 6.62946 13.6453 6.97278 13.2231 6.97278H12.4577V5.44189Z" fill="white"/>
</g>
</svg>
