<svg width="32" height="32" viewBox="0 0 32 32" fill="none" xmlns="http://www.w3.org/2000/svg">
<g id="icon">
<path id="Vector" d="M29.5417 0.123047H13.9167C12.7661 0.123047 11.8333 1.05584 11.8333 2.20638V12.623C11.8333 13.7736 12.7661 14.7064 13.9167 14.7064H18.9551L18.2111 17.3105H17.0417V18.3522H26.4167V17.3105H25.2473L24.5033 14.7064H29.5417C30.6922 14.7064 31.625 13.7736 31.625 12.623V2.20638C31.625 1.05584 30.6922 0.123047 29.5417 0.123047ZM12.875 2.20638C12.875 1.63101 13.3413 1.16471 13.9167 1.16471H29.5417C30.117 1.16471 30.5833 1.63101 30.5833 2.20638V11.0605H12.875V2.20638ZM24.1634 17.3105H19.2949L20.0384 14.7064H23.4199L24.1634 17.3105ZM29.5417 13.6647H13.9167C13.3413 13.6647 12.875 13.1984 12.875 12.623V12.1022H30.5833V12.623C30.5833 13.1984 30.117 13.6647 29.5417 13.6647ZM1.9375 31.373H15.4792C16.342 31.373 17.0417 30.6733 17.0417 29.8105V28.248C17.0417 27.9603 16.8086 27.7272 16.5208 27.7272H15.4792V20.4355C15.4792 19.5728 14.7795 18.873 13.9167 18.873H3.5C2.63721 18.873 1.9375 19.5728 1.9375 20.4355V27.7272H0.895833C0.608083 27.7272 0.375 27.9603 0.375 28.248V29.8105C0.375 30.6733 1.07471 31.373 1.9375 31.373ZM2.97917 20.4355C2.97917 20.1478 3.21225 19.9147 3.5 19.9147H13.9167C14.2044 19.9147 14.4375 20.1478 14.4375 20.4355V27.7272H10.2708C10.1327 27.7272 10.0003 27.7822 9.90267 27.8799L9.53433 28.248H7.88233L7.514 27.8799C7.46567 27.8315 7.40828 27.7931 7.3451 27.7669C7.28193 27.7407 7.21422 27.7272 7.14583 27.7272H2.97917V20.4355ZM1.41667 28.7689H6.93017L7.2985 29.137C7.34683 29.1854 7.40422 29.2238 7.4674 29.25C7.53057 29.2762 7.59828 29.2897 7.66667 29.2897H9.75C9.88817 29.2897 10.0205 29.2347 10.1182 29.137L10.4865 28.7689H16V29.8105C16 30.0983 15.7669 30.3314 15.4792 30.3314H1.9375C1.64975 30.3314 1.41667 30.0983 1.41667 29.8105V28.7689ZM5.58333 14.7064H6.625V15.748H5.58333V14.7064ZM5.58333 12.623H6.625V13.6647H5.58333V12.623ZM5.58333 16.7897H6.625V17.8314H5.58333V16.7897ZM5.58333 10.5397H6.625V11.5814H5.58333V10.5397ZM5.58333 8.45638H6.625V9.49805H5.58333V8.45638ZM7.66667 8.45638H8.70833V9.49805H7.66667V8.45638ZM9.75 8.45638H10.7917V9.49805H9.75V8.45638ZM24.3333 21.4772H25.375V22.5189H24.3333V21.4772ZM24.3333 23.5605H25.375V24.6022H24.3333V23.5605ZM24.3333 19.3939H25.375V20.4355H24.3333V19.3939ZM24.3333 25.6439H25.375V26.6855H24.3333V25.6439ZM24.3333 27.7272H25.375V28.7689H24.3333V27.7272ZM22.25 27.7272H23.2917V28.7689H22.25V27.7272ZM20.1667 27.7272H21.2083V28.7689H20.1667V27.7272ZM18.0833 27.7272H19.125V28.7689H18.0833V27.7272Z" fill="white"/>
<path id="Vector_2" d="M21.4767 3.65428C21.889 3.65347 22.2943 3.76125 22.6517 3.96678C22.873 4.0947 23.1546 4.04328 23.3159 3.8447C23.394 3.74877 23.4354 3.62817 23.4327 3.5045C23.43 3.38082 23.3834 3.26215 23.3011 3.16974L22.651 2.39453L22.2741 2.70703C21.7748 2.58657 21.2546 2.58096 20.7528 2.69063C20.251 2.8003 19.7807 3.02238 19.3771 3.34016C18.9737 3.65812 18.6476 4.06347 18.4235 4.52569C18.1994 4.9879 18.0831 5.49494 18.0833 6.00861C18.0823 6.53297 18.2042 7.05027 18.4392 7.51903L19.3709 7.05453C19.1927 6.69587 19.1089 6.29764 19.1276 5.89756C19.1464 5.49749 19.2669 5.10881 19.4779 4.76836C19.6888 4.42797 19.983 4.14701 20.3328 3.95206C20.6826 3.75711 21.0763 3.65462 21.4767 3.65428ZM23.5666 4.91486C23.7295 5.24064 23.8138 5.60011 23.8125 5.96436C23.8124 6.37707 23.7036 6.78248 23.4973 7.13987C23.2909 7.49727 22.9941 7.79407 22.6367 8.00049C22.2793 8.20675 21.874 8.31539 21.4613 8.3155C21.0487 8.31561 20.6433 8.20719 20.2858 8.00112C20.0645 7.87353 19.7829 7.92512 19.6216 8.1232C19.4603 8.32178 19.4665 8.60791 19.6364 8.79861L20.2422 9.76807L20.9775 9.32274C21.459 9.39179 21.9497 9.35655 22.4163 9.21944C22.883 9.08232 23.3147 8.84651 23.6823 8.52799C24.0499 8.2096 24.3448 7.81591 24.547 7.37359C24.7492 6.93127 24.854 6.45066 24.8542 5.96432C24.8555 5.43993 24.7336 4.92255 24.4983 4.45391L23.5666 4.91486ZM7.14584 24.0815C7.14576 23.8394 7.20191 23.6006 7.30987 23.3839C7.41782 23.1672 7.57462 22.9786 7.76792 22.8328C7.96129 22.6872 8.18585 22.5884 8.42391 22.5444C8.66196 22.5003 8.90699 22.5122 9.13967 22.5791L9.42642 21.5779C8.31446 21.2586 7.12501 21.7114 6.50684 22.6896C5.88834 23.6674 5.98992 24.9362 6.75521 25.8039L7.53646 25.1149C7.28466 24.8296 7.14575 24.4621 7.14584 24.0815ZM8.70834 25.644C8.52759 25.6442 8.34818 25.6131 8.17805 25.5521L7.82292 26.5294C8.94188 26.9334 10.1919 26.5278 10.8607 25.5444C11.5293 24.5607 11.4468 23.249 10.6598 22.3571L9.87859 23.0462C10.0781 23.2716 10.2082 23.5498 10.2533 23.8473C10.2984 24.1449 10.2566 24.4491 10.1328 24.7234C10.0092 24.9978 9.80906 25.2306 9.55637 25.3939C9.30367 25.5572 9.00921 25.644 8.70834 25.644Z" fill="white"/>
</g>
</svg>
