<svg width="32" height="32" viewBox="0 0 32 32" fill="none" xmlns="http://www.w3.org/2000/svg">
<g id="icon">
<path id="Vector" d="M30.4734 19.0552L29.3955 18.4329C29.5765 17.5325 29.6681 16.6309 29.6681 15.748C29.6681 14.8524 29.578 13.9499 29.4 13.0605L30.4734 12.4408C30.8058 12.2489 31.0436 11.939 31.143 11.5682C31.2423 11.1974 31.1913 10.8101 30.9994 10.4777L28.064 5.39335C27.97 5.22959 27.8445 5.08608 27.6947 4.97115C27.5449 4.85622 27.3738 4.77213 27.1913 4.72377C27.0091 4.67441 26.8189 4.66169 26.6317 4.68634C26.4445 4.71098 26.264 4.77251 26.1008 4.86736L25.0265 5.48759C23.6696 4.29379 22.0726 3.36987 20.3726 2.79501V1.56018C20.3726 0.767739 19.7279 0.123047 18.9355 0.123047H13.0646C12.2722 0.123047 11.6275 0.767739 11.6275 1.56018V2.79507C9.93657 3.3676 8.34178 4.29275 6.9798 5.49126L5.89926 4.86736C5.73601 4.7725 5.55556 4.71096 5.36836 4.68631C5.18116 4.66167 4.99094 4.6744 4.80869 4.72377C4.6262 4.77215 4.45511 4.85623 4.30533 4.97117C4.15554 5.0861 4.03004 5.2296 3.93608 5.39335L1.00066 10.4777C0.808693 10.8101 0.757752 11.1974 0.857067 11.5682C0.956382 11.939 1.19421 12.2489 1.52665 12.4408L2.60456 13.0632C2.42366 13.9636 2.33199 14.8652 2.33199 15.748C2.33199 16.6436 2.42214 17.5461 2.60009 18.4355L1.52671 19.0552C0.840433 19.4514 0.604498 20.3321 1.00066 21.0184L3.93608 26.1027C4.3323 26.789 5.21293 27.025 5.89926 26.6287L6.97344 26.0085C8.33046 27.2023 9.92739 28.1262 11.6275 28.7011V29.9359C11.6275 30.7284 12.2722 31.373 13.0646 31.373H18.9355C19.7279 31.373 20.3726 30.7284 20.3726 29.9359V28.701C22.0636 28.1285 23.6584 27.2033 25.0203 26.0049L26.1008 26.6287C26.787 27.025 27.6678 26.789 28.064 26.1027L30.9994 21.0184C31.3956 20.3321 31.1597 19.4514 30.4734 19.0552ZM30.205 20.5598L27.2696 25.644C27.1263 25.8923 26.8077 25.9776 26.5595 25.8343L25.1901 25.0437C25.1053 24.9947 25.0071 24.9742 24.9098 24.9851C24.8125 24.996 24.7213 25.0377 24.6494 25.1042C23.2494 26.399 21.5649 27.3759 19.7782 27.9294C19.6847 27.9584 19.6029 28.0166 19.5447 28.0954C19.4866 28.1742 19.4553 28.2696 19.4553 28.3675V29.9359C19.4553 30.2225 19.2221 30.4557 18.9355 30.4557H13.0646C12.778 30.4557 12.5448 30.2225 12.5448 29.9359V28.3676C12.5448 28.2697 12.5135 28.1743 12.4554 28.0955C12.3973 28.0167 12.3155 27.9585 12.2219 27.9295C10.4242 27.3726 8.73769 26.3968 7.34453 25.1079C7.27269 25.0413 7.18141 24.9996 7.08409 24.9887C6.98677 24.9778 6.88852 24.9983 6.80374 25.0473L5.4406 25.8343C5.19232 25.9776 4.87382 25.8923 4.73054 25.644L1.79512 20.5598C1.65183 20.3115 1.7372 19.993 1.98537 19.8496L3.3474 19.0632C3.43214 19.0143 3.49901 18.9396 3.53825 18.85C3.57748 18.7603 3.58703 18.6605 3.56548 18.5651C3.35566 17.6351 3.24931 16.6873 3.24931 15.748C3.24931 14.8246 3.35725 13.8777 3.57019 12.9336C3.59171 12.8382 3.58216 12.7384 3.54292 12.6487C3.50369 12.5591 3.43683 12.4844 3.35211 12.4355L1.98537 11.6464C1.92614 11.6124 1.87424 11.567 1.83267 11.5129C1.7911 11.4587 1.76069 11.3968 1.7432 11.3308C1.72535 11.2649 1.72075 11.1961 1.72967 11.1284C1.73858 11.0607 1.76082 10.9954 1.79512 10.9363L4.73054 5.85201C4.76452 5.79277 4.80992 5.74085 4.86411 5.69928C4.91829 5.65771 4.98019 5.62731 5.04622 5.60984C5.11213 5.59198 5.18094 5.58737 5.24864 5.59629C5.31635 5.6052 5.38162 5.62745 5.44066 5.66176L6.81004 6.45236C6.89482 6.50133 6.99305 6.52188 7.09034 6.51099C7.18764 6.50011 7.2789 6.45837 7.35077 6.39188C8.75084 5.09706 10.4352 4.12011 12.2219 3.5666C12.3155 3.53762 12.3973 3.47946 12.4554 3.40063C12.5135 3.32179 12.5449 3.22643 12.5449 3.12849V1.56018C12.5449 1.27355 12.7781 1.04037 13.0647 1.04037H18.9355C19.2222 1.04037 19.4553 1.27355 19.4553 1.56018V3.12849C19.4554 3.22642 19.4867 3.32177 19.5448 3.40061C19.6029 3.47944 19.6847 3.53761 19.7782 3.5666C21.5759 4.12348 23.2624 5.0992 24.6556 6.38821C24.7275 6.45471 24.8188 6.49645 24.9161 6.50735C25.0134 6.51824 25.1116 6.49771 25.1964 6.44876L26.5595 5.66176C26.6186 5.62745 26.6839 5.6052 26.7516 5.59629C26.8193 5.58738 26.8881 5.59198 26.954 5.60984C27.02 5.62734 27.0819 5.65776 27.1361 5.69932C27.1903 5.74089 27.2357 5.79279 27.2697 5.85201L30.2051 10.9363C30.2394 10.9954 30.2617 11.0607 30.2706 11.1284C30.2795 11.1961 30.2749 11.2649 30.257 11.3308C30.2395 11.3968 30.2091 11.4587 30.1675 11.5129C30.126 11.567 30.0741 11.6124 30.0148 11.6464L28.6528 12.4328C28.5681 12.4817 28.5012 12.5564 28.462 12.6461C28.4227 12.7357 28.4132 12.8355 28.4347 12.931C28.6446 13.8609 28.7509 14.8087 28.7509 15.748C28.7509 16.6715 28.643 17.6184 28.43 18.5624C28.4085 18.6579 28.4181 18.7577 28.4573 18.8473C28.4965 18.9369 28.5634 19.0116 28.6481 19.0605L30.0148 19.8496C30.2629 19.993 30.3483 20.3115 30.205 20.5598Z" fill="white"/>
<path id="Vector_2" d="M16.0001 6.48291C10.8913 6.48291 6.73514 10.6392 6.73514 15.7478C6.73514 20.8565 10.8913 25.0128 16.0001 25.0128C21.1088 25.0128 25.265 20.8565 25.265 15.7478C25.265 10.6392 21.1088 6.48291 16.0001 6.48291ZM16.0001 24.0954C11.3972 24.0954 7.65246 20.3507 7.65246 15.7478C7.65246 11.145 11.3972 7.40023 16.0001 7.40023C20.6029 7.40023 24.3477 11.145 24.3477 15.7478C24.3477 20.3507 20.6029 24.0954 16.0001 24.0954Z" fill="white"/>
<path id="Vector_3" d="M17.7124 13.3325H16C15.8784 13.3325 15.7617 13.3809 15.6757 13.4669C15.5897 13.5529 15.5414 13.6696 15.5414 13.7912V17.7051C15.5414 17.8267 15.5897 17.9434 15.6757 18.0294C15.7617 18.1154 15.8784 18.1638 16 18.1638C16.1217 18.1638 16.2383 18.1154 16.3244 18.0294C16.4104 17.9434 16.4587 17.8267 16.4587 17.7051V16.696H17.7124C18.6397 16.696 19.3941 15.9416 19.3941 15.0143C19.3941 14.0869 18.6397 13.3325 17.7124 13.3325ZM17.7124 15.7787H16.4587V14.2499H17.7124C18.1339 14.2499 18.4768 14.5928 18.4768 15.0143C18.4768 15.4358 18.1339 15.7787 17.7124 15.7787ZM13.494 13.6302C13.4613 13.5428 13.4026 13.4674 13.3259 13.4142C13.2491 13.3611 13.158 13.3326 13.0646 13.3325H12.5754C12.482 13.3325 12.3909 13.361 12.3141 13.4142C12.2374 13.4674 12.1787 13.5428 12.146 13.6302L10.6782 17.5441C10.6355 17.658 10.6398 17.7842 10.6901 17.8949C10.7405 18.0057 10.8327 18.0919 10.9466 18.1346C11.0605 18.1773 11.1867 18.173 11.2975 18.1227C11.4082 18.0723 11.4944 17.9801 11.5372 17.8662L11.7924 17.1853H13.8475L14.1028 17.8661C14.1356 17.9536 14.1943 18.0289 14.271 18.0821C14.3478 18.1353 14.4389 18.1638 14.5323 18.1639C14.6064 18.1639 14.6795 18.1459 14.7451 18.1115C14.8108 18.0771 14.8671 18.0273 14.9093 17.9664C14.9515 17.9055 14.9783 17.8352 14.9874 17.7617C14.9966 17.6881 14.9877 17.6135 14.9617 17.5441L13.494 13.6302ZM12.1364 16.268L12.82 14.4451L13.5036 16.268H12.1364ZM20.4032 13.3325C20.2815 13.3325 20.1649 13.3809 20.0788 13.4669C19.9928 13.5529 19.9445 13.6696 19.9445 13.7912V17.7051C19.9445 17.8267 19.9928 17.9434 20.0788 18.0294C20.1649 18.1154 20.2815 18.1638 20.4032 18.1638C20.5248 18.1638 20.6415 18.1154 20.7275 18.0294C20.8135 17.9434 20.8618 17.8267 20.8618 17.7051V13.7912C20.8618 13.6696 20.8135 13.5529 20.7275 13.4669C20.6415 13.3809 20.5248 13.3325 20.4032 13.3325ZM19.2811 5.46195C19.6007 5.56391 19.9154 5.68076 20.2242 5.81212C20.2809 5.83635 20.3419 5.84885 20.4036 5.84887C20.5094 5.84896 20.6119 5.81249 20.6939 5.74562C20.7759 5.67876 20.8322 5.58562 20.8534 5.48198C20.8745 5.37834 20.8592 5.27057 20.81 5.17692C20.7608 5.08328 20.6808 5.00951 20.5835 4.96812C20.2483 4.82552 19.9066 4.69867 19.5596 4.58799C19.4441 4.55262 19.3194 4.56421 19.2124 4.62024C19.1055 4.67627 19.0249 4.77222 18.9883 4.88727C18.9516 5.00232 18.9618 5.12719 19.0166 5.23478C19.0714 5.34237 19.1665 5.42399 19.2811 5.46195ZM6.51802 20.9098C6.45976 20.8031 6.36146 20.7238 6.24476 20.6895C6.12805 20.6552 6.00249 20.6686 5.89571 20.7269C5.78892 20.7851 5.70965 20.8834 5.67534 21.0001C5.64102 21.1168 5.65447 21.2424 5.71273 21.3492C5.904 21.6996 6.11299 22.0399 6.33889 22.3691C6.38104 22.4305 6.43754 22.4808 6.50349 22.5154C6.56944 22.5501 6.64286 22.5682 6.71738 22.5681C6.8009 22.568 6.88282 22.5452 6.95429 22.502C7.02577 22.4587 7.08409 22.3968 7.12295 22.3229C7.16182 22.249 7.17977 22.1658 7.17486 22.0825C7.16994 21.9991 7.14236 21.9186 7.09507 21.8498C6.88689 21.5465 6.69429 21.2327 6.51802 20.9098ZM15.0607 26.5016C12.603 26.2899 10.27 25.2248 8.49172 23.5026C8.44855 23.4602 8.39742 23.4268 8.34129 23.4042C8.28515 23.3817 8.22511 23.3705 8.16462 23.3713C8.10414 23.372 8.0444 23.3847 7.98885 23.4087C7.9333 23.4326 7.88304 23.4673 7.84096 23.5108C7.79887 23.5543 7.7658 23.6056 7.74365 23.6619C7.72149 23.7182 7.71069 23.7783 7.71186 23.8388C7.71303 23.8993 7.72616 23.9589 7.75048 24.0143C7.7748 24.0697 7.80984 24.1197 7.85357 24.1615C9.783 26.0301 12.3146 27.1857 14.9819 27.4155C15.1031 27.426 15.2235 27.3878 15.3166 27.3095C15.4096 27.2312 15.4678 27.1191 15.4783 26.998C15.4887 26.8768 15.4506 26.7564 15.3723 26.6633C15.2939 26.5703 15.1819 26.5121 15.0607 26.5016ZM22.6001 6.0727C22.4997 6.00406 22.3761 5.97812 22.2566 6.0006C22.137 6.02308 22.0313 6.09213 21.9627 6.19256C21.894 6.29299 21.8681 6.41657 21.8906 6.53612C21.9131 6.65567 21.9821 6.7614 22.0825 6.83004C24.2134 8.28631 25.7548 10.4533 26.4228 12.9318C26.449 13.0291 26.5066 13.1151 26.5866 13.1765C26.6666 13.2378 26.7646 13.2711 26.8654 13.2712C26.9358 13.2712 27.0053 13.2551 27.0685 13.2239C27.1317 13.1928 27.1868 13.1475 27.2297 13.0916C27.2725 13.0357 27.3019 12.9706 27.3156 12.9015C27.3293 12.8324 27.3268 12.7611 27.3085 12.6931C26.5837 10.0035 24.9115 7.65238 22.6001 6.0727Z" fill="white"/>
</g>
</svg>
