<svg width="32" height="32" viewBox="0 0 32 32" fill="none" xmlns="http://www.w3.org/2000/svg">
<g id="icon">
<path id="Vector" d="M4.54165 25.123H19.125C20.2755 25.123 21.2083 24.1902 21.2083 23.0397V5.33138C21.2083 5.19326 21.1534 5.06081 21.0557 4.96315L16.3682 0.275651C16.2706 0.177975 16.1381 0.123084 16 0.123047L4.54165 0.123047C3.39113 0.123047 2.45831 1.05586 2.45831 2.20638V23.0397C2.45831 24.1902 3.39113 25.123 4.54165 25.123ZM3.49998 2.20638C3.49998 1.63112 3.96639 1.16471 4.54165 1.16471H15.7844L20.1666 5.54707V23.0397C20.1666 23.615 19.7002 24.0814 19.125 24.0814H4.54165C3.96639 24.0814 3.49998 23.615 3.49998 23.0397V2.20638Z" fill="white"/>
<path id="Vector_2" d="M5.58333 22.5187H18.0833C18.2215 22.5187 18.3539 22.4638 18.4516 22.3662C18.5493 22.2685 18.6042 22.136 18.6042 21.9979V11.5812C18.6042 11.4431 18.5493 11.3106 18.4516 11.2129C18.3539 11.1153 18.2215 11.0604 18.0833 11.0604H5.58333C5.4452 11.0604 5.31272 11.1153 5.21505 11.2129C5.11737 11.3106 5.0625 11.4431 5.0625 11.5812V21.9979C5.0625 22.136 5.11737 22.2685 5.21505 22.3662C5.31272 22.4638 5.4452 22.5187 5.58333 22.5187ZM6.10417 18.3521H8.1875V21.4771H6.10417V18.3521ZM12.3542 14.7062V12.1021H14.4375V17.3104H6.10417V15.2271H11.8333C11.9715 15.2271 12.1039 15.1722 12.2016 15.0745C12.2993 14.9768 12.3542 14.8444 12.3542 14.7062ZM11.3125 18.3521V21.4771H9.22917V18.3521H11.3125ZM12.3542 18.3521H14.4375V21.4771H12.3542V18.3521ZM17.5625 21.4771H15.4792V12.1021H17.5625V21.4771ZM11.3125 12.1021V14.1854H6.10417V12.1021H11.3125ZM5.0625 2.72705H6.10417V3.76872H5.0625V2.72705ZM7.14583 2.72705H10.7917V3.76872H7.14583V2.72705ZM5.0625 4.81038H12.3542V5.85205H5.0625V4.81038Z" fill="white"/>
<path id="Vector_3" d="M28.5 11.7971V29.2897C28.5 29.865 28.0336 30.3314 27.4583 30.3314H12.875C12.2997 30.3314 11.8333 29.865 11.8333 29.2897V26.1647H10.7916V29.2897C10.7916 30.4402 11.7244 31.373 12.875 31.373H27.4583C28.6088 31.373 29.5416 30.4402 29.5416 29.2897V11.5814C29.5416 11.4433 29.4867 11.3108 29.389 11.2132L24.7015 6.52565C24.6039 6.42798 24.4714 6.37308 24.3333 6.37305H22.25V7.41471H24.1177L28.5 11.7971Z" fill="white"/>
<path id="Vector_4" d="M23.2917 27.7271H20.6875V26.1646H19.6458V27.7271H17.5625V26.1646H16.5208V27.7271H14.4375V26.1646H13.3958V28.2479C13.3958 28.386 13.4507 28.5185 13.5484 28.6162C13.6461 28.7138 13.7785 28.7687 13.9167 28.7687H26.4167C26.5548 28.7687 26.6873 28.7138 26.785 28.6162C26.8826 28.5185 26.9375 28.386 26.9375 28.2479V17.8312C26.9375 17.6931 26.8826 17.5606 26.785 17.4629C26.6873 17.3653 26.5548 17.3104 26.4167 17.3104H22.25V18.352H23.2917V23.5604H22.25V24.6021H23.2917V27.7271ZM25.8958 18.352V27.7271H24.3333V18.352H25.8958ZM30.5833 17.3104H31.625V27.2062H30.5833V17.3104ZM30.5833 28.2479H31.625V29.2895H30.5833V28.2479ZM0.375 2.72705H1.41667V17.8312H0.375V2.72705Z" fill="white"/>
</g>
</svg>
